<svg xmlns="http://www.w3.org/2000/svg" xmlns:xlink="http://www.w3.org/1999/xlink" viewBox="0 0 1500 1500" width="1500" height="1500" preserveAspectRatio="xMidYMid meet" style="width: 100%; height: 100%; transform: translate3d(0px, 0px, 0px); content-visibility: visible;"><defs><clipPath id="__lottie_element_3050"><rect width="1500" height="1500" x="0" y="0"/></clipPath><radialGradient id="__lottie_element_3055" spreadMethod="pad" gradientUnits="userSpaceOnUse" cx="169.5" cy="-392.5" r="1273.7801933008725" fx="169.5" fy="-392.5"><stop offset="0%" stop-color="rgb(95,228,212)"/><stop offset="50%" stop-color="rgb(173,89,212)"/><stop offset="100%" stop-color="rgb(216,163,83)"/></radialGradient><clipPath id="__lottie_element_3056"><path d="M0,0 L2500,0 L2500,2500 L0,2500z"/></clipPath><clipPath id="__lottie_element_3060"><path d="M0,0 L2500,0 L2500,2500 L0,2500z"/></clipPath><clipPath id="__lottie_element_3064"><path d="M0,0 L1500,0 L1500,1500 L0,1500z"/></clipPath><radialGradient id="__lottie_element_3070" spreadMethod="pad" gradientUnits="userSpaceOnUse" cx="337.7829895019531" cy="769.0830078125" r="1101.7732739098276" fx="337.7829895019531" fy="769.0830078125"><stop offset="0%" stop-color="rgb(95,228,212)"/><stop offset="50%" stop-color="rgb(173,89,212)"/><stop offset="100%" stop-color="rgb(216,163,83)"/></radialGradient><radialGradient id="__lottie_element_3074" spreadMethod="pad" gradientUnits="userSpaceOnUse" cx="481.77398681640625" cy="689.0809936523438" r="1101.7741954452524" fx="481.77398681640625" fy="689.0809936523438"><stop offset="0%" stop-color="rgb(95,228,212)"/><stop offset="50%" stop-color="rgb(173,89,212)"/><stop offset="100%" stop-color="rgb(216,163,83)"/></radialGradient><radialGradient id="__lottie_element_3078" spreadMethod="pad" gradientUnits="userSpaceOnUse" cx="588.6320190429688" cy="555.4400024414062" r="1101.7733291561526" fx="588.6320190429688" fy="555.4400024414062"><stop offset="0%" stop-color="rgb(95,228,212)"/><stop offset="50%" stop-color="rgb(173,89,212)"/><stop offset="100%" stop-color="rgb(216,163,83)"/></radialGradient><radialGradient id="__lottie_element_3082" spreadMethod="pad" gradientUnits="userSpaceOnUse" cx="97.09200286865234" cy="773.385986328125" r="1101.7742439236783" fx="97.09200286865234" fy="773.385986328125"><stop offset="0%" stop-color="rgb(95,228,212)"/><stop offset="50%" stop-color="rgb(173,89,212)"/><stop offset="100%" stop-color="rgb(216,163,83)"/></radialGradient><radialGradient id="__lottie_element_3086" spreadMethod="pad" gradientUnits="userSpaceOnUse" cx="-26.52199935913086" cy="665.4000244140625" r="1101.774143582886" fx="-26.52199935913086" fy="665.4000244140625"><stop offset="0%" stop-color="rgb(95,228,212)"/><stop offset="50%" stop-color="rgb(173,89,212)"/><stop offset="100%" stop-color="rgb(216,163,83)"/></radialGradient><radialGradient id="__lottie_element_3090" spreadMethod="pad" gradientUnits="userSpaceOnUse" cx="-253.22000122070312" cy="520.1610107421875" r="1101.7733280528919" fx="-253.22000122070312" fy="520.1610107421875"><stop offset="0%" stop-color="rgb(95,228,212)"/><stop offset="50%" stop-color="rgb(173,89,212)"/><stop offset="100%" stop-color="rgb(216,163,83)"/></radialGradient><radialGradient id="__lottie_element_3094" spreadMethod="pad" gradientUnits="userSpaceOnUse" cx="-355.9330139160156" cy="465.12200927734375" r="1101.7732479415588" fx="-355.9330139160156" fy="465.12200927734375"><stop offset="0%" stop-color="rgb(95,228,212)"/><stop offset="50%" stop-color="rgb(173,89,212)"/><stop offset="100%" stop-color="rgb(216,163,83)"/></radialGradient><radialGradient id="__lottie_element_3098" spreadMethod="pad" gradientUnits="userSpaceOnUse" cx="-391.9580078125" cy="312.5379943847656" r="1101.7732609256925" fx="-391.9580078125" fy="312.5379943847656"><stop offset="0%" stop-color="rgb(95,228,212)"/><stop offset="50%" stop-color="rgb(173,89,212)"/><stop offset="100%" stop-color="rgb(216,163,83)"/></radialGradient><radialGradient id="__lottie_element_3102" spreadMethod="pad" gradientUnits="userSpaceOnUse" cx="-364.5639953613281" cy="116.39099884033203" r="1101.7737681989472" fx="-364.5639953613281" fy="116.39099884033203"><stop offset="0%" stop-color="rgb(95,228,212)"/><stop offset="50%" stop-color="rgb(173,89,212)"/><stop offset="100%" stop-color="rgb(216,163,83)"/></radialGradient><radialGradient id="__lottie_element_3106" spreadMethod="pad" gradientUnits="userSpaceOnUse" cx="-448.05999755859375" cy="36.81800079345703" r="1101.7741919234059" fx="-448.05999755859375" fy="36.81800079345703"><stop offset="0%" stop-color="rgb(95,228,212)"/><stop offset="50%" stop-color="rgb(173,89,212)"/><stop offset="100%" stop-color="rgb(216,163,83)"/></radialGradient><radialGradient id="__lottie_element_3110" spreadMethod="pad" gradientUnits="userSpaceOnUse" cx="-353.5450134277344" cy="-135.28500366210938" r="1101.7737034903269" fx="-353.5450134277344" fy="-135.28500366210938"><stop offset="0%" stop-color="rgb(95,228,212)"/><stop offset="50%" stop-color="rgb(173,89,212)"/><stop offset="100%" stop-color="rgb(216,163,83)"/></radialGradient><radialGradient id="__lottie_element_3114" spreadMethod="pad" gradientUnits="userSpaceOnUse" cx="-232.82400512695312" cy="-352.9570007324219" r="1101.7742225167897" fx="-232.82400512695312" fy="-352.9570007324219"><stop offset="0%" stop-color="rgb(95,228,212)"/><stop offset="50%" stop-color="rgb(173,89,212)"/><stop offset="100%" stop-color="rgb(216,163,83)"/></radialGradient><radialGradient id="__lottie_element_3118" spreadMethod="pad" gradientUnits="userSpaceOnUse" cx="-202.49899291992188" cy="-467.0639953613281" r="1101.7741630909454" fx="-202.49899291992188" fy="-467.0639953613281"><stop offset="0%" stop-color="rgb(95,228,212)"/><stop offset="50%" stop-color="rgb(173,89,212)"/><stop offset="100%" stop-color="rgb(216,163,83)"/></radialGradient><radialGradient id="__lottie_element_3122" spreadMethod="pad" gradientUnits="userSpaceOnUse" cx="-14.467000007629395" cy="-518.4840087890625" r="1101.7733118306912" fx="-14.467000007629395" fy="-518.4840087890625"><stop offset="0%" stop-color="rgb(95,228,212)"/><stop offset="50%" stop-color="rgb(173,89,212)"/><stop offset="100%" stop-color="rgb(216,163,83)"/></radialGradient><radialGradient id="__lottie_element_3126" spreadMethod="pad" gradientUnits="userSpaceOnUse" cx="129.30099487304688" cy="-503.6860046386719" r="1101.7733003236965" fx="129.30099487304688" fy="-503.6860046386719"><stop offset="0%" stop-color="rgb(95,228,212)"/><stop offset="50%" stop-color="rgb(173,89,212)"/><stop offset="100%" stop-color="rgb(216,163,83)"/></radialGradient><radialGradient id="__lottie_element_3130" spreadMethod="pad" gradientUnits="userSpaceOnUse" cx="379.5400085449219" cy="-604.2509765625" r="1101.7742084294043" fx="379.5400085449219" fy="-604.2509765625"><stop offset="0%" stop-color="rgb(95,228,212)"/><stop offset="50%" stop-color="rgb(173,89,212)"/><stop offset="100%" stop-color="rgb(216,163,83)"/></radialGradient><radialGradient id="__lottie_element_3134" spreadMethod="pad" gradientUnits="userSpaceOnUse" cx="520.5390014648438" cy="-511.95599365234375" r="1101.7741887317327" fx="520.5390014648438" fy="-511.95599365234375"><stop offset="0%" stop-color="rgb(95,228,212)"/><stop offset="50%" stop-color="rgb(173,89,212)"/><stop offset="100%" stop-color="rgb(216,163,83)"/></radialGradient><radialGradient id="__lottie_element_3138" spreadMethod="pad" gradientUnits="userSpaceOnUse" cx="727.7210083007812" cy="-343.3290100097656" r="1101.774208981021" fx="727.7210083007812" fy="-343.3290100097656"><stop offset="0%" stop-color="rgb(95,228,212)"/><stop offset="50%" stop-color="rgb(173,89,212)"/><stop offset="100%" stop-color="rgb(216,163,83)"/></radialGradient><radialGradient id="__lottie_element_3142" spreadMethod="pad" gradientUnits="userSpaceOnUse" cx="737.9520263671875" cy="-226.92599487304688" r="1101.773757633424" fx="737.9520263671875" fy="-226.92599487304688"><stop offset="0%" stop-color="rgb(95,228,212)"/><stop offset="50%" stop-color="rgb(173,89,212)"/><stop offset="100%" stop-color="rgb(216,163,83)"/></radialGradient><radialGradient id="__lottie_element_3146" spreadMethod="pad" gradientUnits="userSpaceOnUse" cx="839.2360229492188" cy="-114.69000244140625" r="1101.7733291561526" fx="839.2360229492188" fy="-114.69000244140625"><stop offset="0%" stop-color="rgb(95,228,212)"/><stop offset="50%" stop-color="rgb(173,89,212)"/><stop offset="100%" stop-color="rgb(216,163,83)"/></radialGradient><radialGradient id="__lottie_element_3150" spreadMethod="pad" gradientUnits="userSpaceOnUse" cx="923.22998046875" cy="76.36599731445312" r="1101.7741644381558" fx="923.22998046875" fy="76.36599731445312"><stop offset="0%" stop-color="rgb(95,228,212)"/><stop offset="50%" stop-color="rgb(173,89,212)"/><stop offset="100%" stop-color="rgb(216,163,83)"/></radialGradient><radialGradient id="__lottie_element_3154" spreadMethod="pad" gradientUnits="userSpaceOnUse" cx="847.1099853515625" cy="153.36300659179688" r="1101.774167822098" fx="847.1099853515625" fy="153.36300659179688"><stop offset="0%" stop-color="rgb(95,228,212)"/><stop offset="50%" stop-color="rgb(173,89,212)"/><stop offset="100%" stop-color="rgb(216,163,83)"/></radialGradient><radialGradient id="__lottie_element_3158" spreadMethod="pad" gradientUnits="userSpaceOnUse" cx="758.0369873046875" cy="385.4309997558594" r="1101.773287997224" fx="758.0369873046875" fy="385.4309997558594"><stop offset="0%" stop-color="rgb(95,228,212)"/><stop offset="50%" stop-color="rgb(173,89,212)"/><stop offset="100%" stop-color="rgb(216,163,83)"/></radialGradient><radialGradient id="__lottie_element_3162" spreadMethod="pad" gradientUnits="userSpaceOnUse" cx="691.2969970703125" cy="558.4409790039062" r="1101.773302084621" fx="691.2969970703125" fy="558.4409790039062"><stop offset="0%" stop-color="rgb(95,228,212)"/><stop offset="50%" stop-color="rgb(173,89,212)"/><stop offset="100%" stop-color="rgb(216,163,83)"/></radialGradient><radialGradient id="__lottie_element_3166" spreadMethod="pad" gradientUnits="userSpaceOnUse" cx="568.9710083007812" cy="700.9180297851562" r="1101.7741954452524" fx="568.9710083007812" fy="700.9180297851562"><stop offset="0%" stop-color="rgb(95,228,212)"/><stop offset="50%" stop-color="rgb(173,89,212)"/><stop offset="100%" stop-color="rgb(216,163,83)"/></radialGradient><radialGradient id="__lottie_element_3170" spreadMethod="pad" gradientUnits="userSpaceOnUse" cx="-462.697998046875" cy="266.5409851074219" r="1101.774263675713" fx="-462.697998046875" fy="266.5409851074219"><stop offset="0%" stop-color="rgb(95,228,212)"/><stop offset="50%" stop-color="rgb(173,89,212)"/><stop offset="100%" stop-color="rgb(216,163,83)"/></radialGradient><radialGradient id="__lottie_element_3174" spreadMethod="pad" gradientUnits="userSpaceOnUse" cx="872.6129760742188" cy="-215.31900024414062" r="1101.7741751415995" fx="872.6129760742188" fy="-215.31900024414062"><stop offset="0%" stop-color="rgb(95,228,212)"/><stop offset="50%" stop-color="rgb(173,89,212)"/><stop offset="100%" stop-color="rgb(216,163,83)"/></radialGradient><radialGradient id="__lottie_element_3178" spreadMethod="pad" gradientUnits="userSpaceOnUse" cx="795.0139770507812" cy="517.0040283203125" r="1101.7732603740615" fx="795.0139770507812" fy="517.0040283203125"><stop offset="0%" stop-color="rgb(95,228,212)"/><stop offset="50%" stop-color="rgb(173,89,212)"/><stop offset="100%" stop-color="rgb(216,163,83)"/></radialGradient><radialGradient id="__lottie_element_3182" spreadMethod="pad" gradientUnits="userSpaceOnUse" cx="95" cy="165.4499969482422" r="428.68404883009566" fx="95" fy="165.4499969482422"><stop offset="0%" stop-color="rgb(95,228,212)"/><stop offset="50%" stop-color="rgb(173,89,212)"/><stop offset="100%" stop-color="rgb(216,163,83)"/></radialGradient><radialGradient id="__lottie_element_3186" spreadMethod="pad" gradientUnits="userSpaceOnUse" cx="17.45400047302246" cy="162.552001953125" r="414.17266949293565" fx="17.45400047302246" fy="162.552001953125"><stop offset="0%" stop-color="rgb(95,228,212)"/><stop offset="50%" stop-color="rgb(173,89,212)"/><stop offset="100%" stop-color="rgb(216,163,83)"/></radialGradient><radialGradient id="__lottie_element_3190" spreadMethod="pad" gradientUnits="userSpaceOnUse" cx="-69.68299865722656" cy="160.92999267578125" r="426.1367234311375" fx="-69.68299865722656" fy="160.92999267578125"><stop offset="0%" stop-color="rgb(95,228,212)"/><stop offset="50%" stop-color="rgb(173,89,212)"/><stop offset="100%" stop-color="rgb(216,163,83)"/></radialGradient><radialGradient id="__lottie_element_3194" spreadMethod="pad" gradientUnits="userSpaceOnUse" cx="-467.4259948730469" cy="-446.1419982910156" r="2227.5746299611164" fx="-467.4259948730469" fy="-446.1419982910156"><stop offset="0%" stop-color="rgb(95,228,212)"/><stop offset="50%" stop-color="rgb(173,89,212)"/><stop offset="100%" stop-color="rgb(216,163,83)"/></radialGradient><radialGradient id="__lottie_element_3198" spreadMethod="pad" gradientUnits="userSpaceOnUse" cx="-445.3680114746094" cy="-604.3159790039062" r="2227.5746729427124" fx="-445.3680114746094" fy="-604.3159790039062"><stop offset="0%" stop-color="rgb(95,228,212)"/><stop offset="50%" stop-color="rgb(173,89,212)"/><stop offset="100%" stop-color="rgb(216,163,83)"/></radialGradient><radialGradient id="__lottie_element_3202" spreadMethod="pad" gradientUnits="userSpaceOnUse" cx="-622.2630004882812" cy="-581.6959838867188" r="2227.5746600985954" fx="-622.2630004882812" fy="-581.6959838867188"><stop offset="0%" stop-color="rgb(95,228,212)"/><stop offset="50%" stop-color="rgb(173,89,212)"/><stop offset="100%" stop-color="rgb(216,163,83)"/></radialGradient><radialGradient id="__lottie_element_3206" spreadMethod="pad" gradientUnits="userSpaceOnUse" cx="-707.239013671875" cy="-900.052978515625" r="2227.5757104608656" fx="-707.239013671875" fy="-900.052978515625"><stop offset="0%" stop-color="rgb(95,228,212)"/><stop offset="50%" stop-color="rgb(173,89,212)"/><stop offset="100%" stop-color="rgb(216,163,83)"/></radialGradient><radialGradient id="__lottie_element_3210" spreadMethod="pad" gradientUnits="userSpaceOnUse" cx="-765.60498046875" cy="-1161.60205078125" r="2227.574733217642" fx="-765.60498046875" fy="-1161.60205078125"><stop offset="0%" stop-color="rgb(95,228,212)"/><stop offset="50%" stop-color="rgb(173,89,212)"/><stop offset="100%" stop-color="rgb(216,163,83)"/></radialGradient><radialGradient id="__lottie_element_3214" spreadMethod="pad" gradientUnits="userSpaceOnUse" cx="-646.1370239257812" cy="-1434.1510009765625" r="2227.574660854118" fx="-646.1370239257812" fy="-1434.1510009765625"><stop offset="0%" stop-color="rgb(95,228,212)"/><stop offset="50%" stop-color="rgb(173,89,212)"/><stop offset="100%" stop-color="rgb(216,163,83)"/></radialGradient><radialGradient id="__lottie_element_3218" spreadMethod="pad" gradientUnits="userSpaceOnUse" cx="-624.39599609375" cy="-1310.3909912109375" r="2227.575636586275" fx="-624.39599609375" fy="-1310.3909912109375"><stop offset="0%" stop-color="rgb(95,228,212)"/><stop offset="50%" stop-color="rgb(173,89,212)"/><stop offset="100%" stop-color="rgb(216,163,83)"/></radialGradient><radialGradient id="__lottie_element_3222" spreadMethod="pad" gradientUnits="userSpaceOnUse" cx="-428.5050048828125" cy="-1607.967041015625" r="2227.5747215068363" fx="-428.5050048828125" fy="-1607.967041015625"><stop offset="0%" stop-color="rgb(95,228,212)"/><stop offset="50%" stop-color="rgb(173,89,212)"/><stop offset="100%" stop-color="rgb(216,163,83)"/></radialGradient><radialGradient id="__lottie_element_3226" spreadMethod="pad" gradientUnits="userSpaceOnUse" cx="-218.1750030517578" cy="-1710.0340576171875" r="2227.5747215068363" fx="-218.1750030517578" fy="-1710.0340576171875"><stop offset="0%" stop-color="rgb(95,228,212)"/><stop offset="50%" stop-color="rgb(173,89,212)"/><stop offset="100%" stop-color="rgb(216,163,83)"/></radialGradient><radialGradient id="__lottie_element_3230" spreadMethod="pad" gradientUnits="userSpaceOnUse" cx="-63.05799865722656" cy="-1697.5379638671875" r="2227.5746727538244" fx="-63.05799865722656" fy="-1697.5379638671875"><stop offset="0%" stop-color="rgb(95,228,212)"/><stop offset="50%" stop-color="rgb(173,89,212)"/><stop offset="100%" stop-color="rgb(216,163,83)"/></radialGradient><radialGradient id="__lottie_element_3234" spreadMethod="pad" gradientUnits="userSpaceOnUse" cx="257.9119873046875" cy="-1638.6419677734375" r="2227.5746729427124" fx="257.9119873046875" fy="-1638.6419677734375"><stop offset="0%" stop-color="rgb(95,228,212)"/><stop offset="50%" stop-color="rgb(173,89,212)"/><stop offset="100%" stop-color="rgb(216,163,83)"/></radialGradient><radialGradient id="__lottie_element_3238" spreadMethod="pad" gradientUnits="userSpaceOnUse" cx="391.1990051269531" cy="-1567.991943359375" r="2227.5746115344577" fx="391.1990051269531" fy="-1567.991943359375"><stop offset="0%" stop-color="rgb(95,228,212)"/><stop offset="50%" stop-color="rgb(173,89,212)"/><stop offset="100%" stop-color="rgb(216,163,83)"/></radialGradient><radialGradient id="__lottie_element_3242" spreadMethod="pad" gradientUnits="userSpaceOnUse" cx="494.52099609375" cy="-1421.97900390625" r="2227.5756976167545" fx="494.52099609375" fy="-1421.97900390625"><stop offset="0%" stop-color="rgb(95,228,212)"/><stop offset="50%" stop-color="rgb(173,89,212)"/><stop offset="100%" stop-color="rgb(216,163,83)"/></radialGradient><radialGradient id="__lottie_element_3246" spreadMethod="pad" gradientUnits="userSpaceOnUse" cx="637.8480224609375" cy="-1093.0770263671875" r="2227.574721129075" fx="637.8480224609375" fy="-1093.0770263671875"><stop offset="0%" stop-color="rgb(95,228,212)"/><stop offset="50%" stop-color="rgb(173,89,212)"/><stop offset="100%" stop-color="rgb(216,163,83)"/></radialGradient><radialGradient id="__lottie_element_3250" spreadMethod="pad" gradientUnits="userSpaceOnUse" cx="630.9860229492188" cy="-832.843017578125" r="2227.574733217642" fx="630.9860229492188" fy="-832.843017578125"><stop offset="0%" stop-color="rgb(95,228,212)"/><stop offset="50%" stop-color="rgb(173,89,212)"/><stop offset="100%" stop-color="rgb(216,163,83)"/></radialGradient><radialGradient id="__lottie_element_3254" spreadMethod="pad" gradientUnits="userSpaceOnUse" cx="548.2069702148438" cy="-759.094970703125" r="2227.574599823638" fx="548.2069702148438" fy="-759.094970703125"><stop offset="0%" stop-color="rgb(95,228,212)"/><stop offset="50%" stop-color="rgb(173,89,212)"/><stop offset="100%" stop-color="rgb(216,163,83)"/></radialGradient><radialGradient id="__lottie_element_3258" spreadMethod="pad" gradientUnits="userSpaceOnUse" cx="139.32000732421875" cy="144.95399475097656" r="492.66742691648426" fx="139.32000732421875" fy="144.95399475097656"><stop offset="0%" stop-color="rgb(95,228,212)"/><stop offset="50%" stop-color="rgb(173,89,212)"/><stop offset="100%" stop-color="rgb(216,163,83)"/></radialGradient><radialGradient id="__lottie_element_3262" spreadMethod="pad" gradientUnits="userSpaceOnUse" cx="-43.672000885009766" cy="261.82501220703125" r="541.7432572509742" fx="-43.672000885009766" fy="261.82501220703125"><stop offset="0%" stop-color="rgb(95,228,212)"/><stop offset="50%" stop-color="rgb(173,89,212)"/><stop offset="100%" stop-color="rgb(216,163,83)"/></radialGradient><radialGradient id="__lottie_element_3266" spreadMethod="pad" gradientUnits="userSpaceOnUse" cx="125.16200256347656" cy="123.8949966430664" r="396.4672584126536" fx="125.16200256347656" fy="123.8949966430664"><stop offset="0%" stop-color="rgb(95,228,212)"/><stop offset="50%" stop-color="rgb(173,89,212)"/><stop offset="100%" stop-color="rgb(216,163,83)"/></radialGradient><radialGradient id="__lottie_element_3270" spreadMethod="pad" gradientUnits="userSpaceOnUse" cx="-452.95001220703125" cy="-301.822998046875" r="1583.5584556081305" fx="-452.95001220703125" fy="-301.822998046875"><stop offset="0%" stop-color="rgb(95,228,212)"/><stop offset="50%" stop-color="rgb(173,89,212)"/><stop offset="100%" stop-color="rgb(216,163,83)"/></radialGradient><radialGradient id="__lottie_element_3274" spreadMethod="pad" gradientUnits="userSpaceOnUse" cx="-283.5090026855469" cy="-737.7730102539062" r="1583.5584645829153" fx="-283.5090026855469" fy="-737.7730102539062"><stop offset="0%" stop-color="rgb(95,228,212)"/><stop offset="50%" stop-color="rgb(173,89,212)"/><stop offset="100%" stop-color="rgb(216,163,83)"/></radialGradient><radialGradient id="__lottie_element_3278" spreadMethod="pad" gradientUnits="userSpaceOnUse" cx="120.51300048828125" cy="-80.3740005493164" r="259.8482227756974" fx="120.51300048828125" fy="-80.3740005493164"><stop offset="0%" stop-color="rgb(95,228,212)"/><stop offset="50%" stop-color="rgb(173,89,212)"/><stop offset="100%" stop-color="rgb(216,163,83)"/></radialGradient><radialGradient id="__lottie_element_3282" spreadMethod="pad" gradientUnits="userSpaceOnUse" cx="436.4960021972656" cy="-389.9179992675781" r="1583.558495433749" fx="436.4960021972656" fy="-389.9179992675781"><stop offset="0%" stop-color="rgb(95,228,212)"/><stop offset="50%" stop-color="rgb(173,89,212)"/><stop offset="100%" stop-color="rgb(216,163,83)"/></radialGradient><radialGradient id="__lottie_element_3286" spreadMethod="pad" gradientUnits="userSpaceOnUse" cx="189.9320068359375" cy="-762.3619995117188" r="1583.5584645829153" fx="189.9320068359375" fy="-762.3619995117188"><stop offset="0%" stop-color="rgb(95,228,212)"/><stop offset="50%" stop-color="rgb(173,89,212)"/><stop offset="100%" stop-color="rgb(216,163,83)"/></radialGradient></defs><g clip-path="url(#__lottie_element_3050)"><g clip-path="url(#__lottie_element_3056)" transform="matrix(0.4994417130947113,-0.023621320724487305,0.020970143377780914,0.4433860778808594,92.63574981689453,174.9715576171875)" opacity="1" style="display: block;"><g transform="matrix(1,0,0,1,1171.217041015625,622.9169921875)" opacity="1" style="display: block;"><g opacity="1" transform="matrix(1,0,0,1,0,0)"><path fill="url(#__lottie_element_3070)" fill-opacity="1" d=" M-13.217000007629395,117.08300018310547 C-13.217000007629395,117.08300018310547 -4.2170000076293945,104.08300018310547 -4.2170000076293945,86.08300018310547 C-4.2170000076293945,68.08300018310547 -5.2170000076293945,-39.91699981689453 -13.217000007629395,-54.91699981689453 C-21.216999053955078,-69.91699981689453 -52.21699905395508,-79.91699981689453 -54.21699905395508,-92.91699981689453 C-56.21699905395508,-105.91699981689453 -55.21699905395508,-117.91699981689453 -15.217000007629395,-127.91699981689453 C24.783000946044922,-137.91700744628906 39.78300094604492,-121.91699981689453 38.78300094604492,-111.91699981689453 C37.78300094604492,-101.91699981689453 11.782999992370605,-82.91699981689453 9.782999992370605,-72.91699981689453 C7.7829999923706055,-62.91699981689453 10.782999992370605,2.0829999446868896 17.783000946044922,18.08300018310547 C24.783000946044922,34.08300018310547 43.78300094604492,93.08300018310547 52.78300094604492,102.08300018310547 C61.78300094604492,111.08300018310547 38.78300094604492,131.08299255371094 20.783000946044922,131.08299255371094 C2.7829999923706055,131.08299255371094 -13.217000007629395,117.08300018310547 -13.217000007629395,117.08300018310547z"/></g></g><g transform="matrix(1,0,0,1,1027.2259521484375,702.9190063476562)" opacity="1" style="display: block;"><g opacity="1" transform="matrix(1,0,0,1,0,0)"><path fill="url(#__lottie_element_3074)" fill-opacity="1" d=" M53.77399826049805,76.08100128173828 C53.77399826049805,76.08100128173828 12.77400016784668,8.081000328063965 9.77400016784668,-4.919000148773193 C6.77400016784668,-17.91900062561035 9.77400016784668,-45.91899871826172 14.77400016784668,-53.91899871826172 C19.77400016784668,-61.91899871826172 27.77400016784668,-71.91899871826172 8.77400016784668,-79.91899871826172 C-10.22599983215332,-87.91899871826172 -19.22599983215332,-83.91899871826172 -35.22600173950195,-71.91899871826172 C-51.22600173950195,-59.91899871826172 -62.22600173950195,-40.91899871826172 -45.22600173950195,-30.91900062561035 C-28.22599983215332,-20.91900062561035 -11.22599983215332,-27.91900062561035 -8.22599983215332,-15.918999671936035 C-5.22599983215332,-3.9189999103546143 19.77400016784668,58.08100128173828 22.77400016784668,76.08100128173828 C25.77400016784668,94.08100128173828 53.77399826049805,76.08100128173828 53.77399826049805,76.08100128173828z"/></g></g><g transform="matrix(1,0,0,1,920.3679809570312,836.5599975585938)" opacity="1" style="display: block;"><g opacity="1" transform="matrix(1,0,0,1,0,0)"><path fill="url(#__lottie_element_3078)" fill-opacity="1" d=" M38.63199996948242,-3.559999942779541 C37.63199996948242,-7.559999942779541 29.631999969482422,-37.560001373291016 0.6320000290870667,-29.559999465942383 C-28.368000030517578,-21.559999465942383 -46.36800003051758,4.440000057220459 -35.36800003051758,15.4399995803833 C-24.368000030517578,26.440000534057617 -9.368000030517578,35.439998626708984 6.631999969482422,28.440000534057617 C22.631999969482422,21.440000534057617 38.63199996948242,-3.559999942779541 38.63199996948242,-3.559999942779541z"/></g></g><g transform="matrix(1,0,0,1,1411.907958984375,618.614013671875)" opacity="1" style="display: block;"><g opacity="1" transform="matrix(1,0,0,1,0,0)"><path fill="url(#__lottie_element_3082)" fill-opacity="1" d=" M-69.90799713134766,116.38600158691406 C-62.90800094604492,113.38600158691406 -37.90800094604492,102.38600158691406 -31.908000946044922,91.38600158691406 C-25.908000946044922,80.38600158691406 -10.907999992370605,35.38600158691406 -6.9079999923706055,18.38599967956543 C-2.9079999923706055,1.3860000371932983 14.092000007629395,-62.61399841308594 8.092000007629395,-74.61399841308594 C2.0920000076293945,-86.61399841308594 -16.908000946044922,-100.61399841308594 -11.907999992370605,-115.61399841308594 C-6.9079999923706055,-130.61399841308594 11.092000007629395,-137.61399841308594 40.09199905395508,-132.61399841308594 C69.09200286865234,-127.61399841308594 74.09200286865234,-114.61399841308594 67.09200286865234,-99.61399841308594 C60.09199905395508,-84.61399841308594 32.09199905395508,-81.61399841308594 30.091999053955078,-67.61399841308594 C28.091999053955078,-53.61399841308594 12.092000007629395,7.386000156402588 12.092000007629395,41.38600158691406 C12.092000007629395,75.38600158691406 6.0920000076293945,110.38600158691406 14.092000007629395,125.38600158691406 C22.091999053955078,140.38600158691406 1.0920000076293945,132.38600158691406 -22.908000946044922,129.38600158691406 C-46.90800094604492,126.38600158691406 -69.90799713134766,116.38600158691406 -69.90799713134766,116.38600158691406z"/></g></g><g transform="matrix(1,0,0,1,1535.52197265625,726.5999755859375)" opacity="1" style="display: block;"><g opacity="1" transform="matrix(1,0,0,1,0,0)"><path fill="url(#__lottie_element_3086)" fill-opacity="1" d=" M-65.52200317382812,60.400001525878906 C-61.52199935913086,44.400001525878906 -8.522000312805176,-13.600000381469727 -2.5220000743865967,-28.600000381469727 C3.4779999256134033,-43.599998474121094 -4.521999835968018,-58.599998474121094 -2.5220000743865967,-68.5999984741211 C-0.5220000147819519,-78.5999984741211 24.47800064086914,-91.5999984741211 44.47800064086914,-82.5999984741211 C64.47799682617188,-73.5999984741211 72.47799682617188,-53.599998474121094 58.47800064086914,-41.599998474121094 C44.47800064086914,-29.600000381469727 27.47800064086914,-25.600000381469727 15.477999687194824,-12.600000381469727 C3.4779999256134033,0.4000000059604645 -7.521999835968018,26.399999618530273 -7.521999835968018,43.400001525878906 C-7.521999835968018,60.400001525878906 -2.5220000743865967,82.4000015258789 -19.52199935913086,85.4000015258789 C-36.52199935913086,88.4000015258789 -65.52200317382812,60.400001525878906 -65.52200317382812,60.400001525878906z"/></g></g><g transform="matrix(1,0,0,1,1762.219970703125,871.8389892578125)" opacity="1" style="display: block;"><g opacity="1" transform="matrix(1,0,0,1,0,0)"><path fill="url(#__lottie_element_3090)" fill-opacity="1" d=" M-76.22000122070312,44.1609992980957 C-76.22000122070312,44.1609992980957 -34.220001220703125,15.16100025177002 -20.219999313354492,-0.8389999866485596 C-6.21999979019165,-16.839000701904297 -2.2200000286102295,-21.839000701904297 -4.21999979019165,-34.8390007019043 C-6.21999979019165,-47.8390007019043 15.779999732971191,-83.83899688720703 48.779998779296875,-59.8390007019043 C81.77999877929688,-35.8390007019043 81.77999877929688,-29.839000701904297 65.77999877929688,-19.839000701904297 C49.779998779296875,-9.83899974822998 41.779998779296875,-21.839000701904297 24.780000686645508,-11.83899974822998 C7.78000020980835,-1.8389999866485596 -47.220001220703125,49.1609992980957 -57.220001220703125,64.16100311279297 C-67.22000122070312,79.16100311279297 -76.22000122070312,44.1609992980957 -76.22000122070312,44.1609992980957z"/></g></g><g transform="matrix(1,0,0,1,1864.9329833984375,926.8779907226562)" opacity="1" style="display: block;"><g opacity="1" transform="matrix(1,0,0,1,0,0)"><path fill="url(#__lottie_element_3094)" fill-opacity="1" d=" M-94.93299865722656,104.12200164794922 C-94.93299865722656,104.12200164794922 -80.93299865722656,70.12200164794922 -65.93299865722656,55.12200164794922 C-50.93299865722656,40.12200164794922 31.066999435424805,-19.878000259399414 37.06700134277344,-23.878000259399414 C43.06700134277344,-27.878000259399414 70.06700134277344,-42.87799835205078 83.06700134277344,-36.87799835205078 C96.06700134277344,-30.878000259399414 120.06700134277344,-21.878000259399414 125.06700134277344,-37.87799835205078 C130.06700134277344,-53.87799835205078 110.06700134277344,-90.87799835205078 92.06700134277344,-99.87799835205078 C74.06700134277344,-108.87799835205078 50.06700134277344,-103.87799835205078 51.06700134277344,-81.87799835205078 C52.06700134277344,-59.87799835205078 21.066999435424805,-31.878000259399414 -2.933000087738037,-21.878000259399414 C-26.933000564575195,-11.878000259399414 -112.93299865722656,38.12200164794922 -123.93299865722656,41.12200164794922 C-134.93299865722656,44.12200164794922 -94.93299865722656,104.12200164794922 -94.93299865722656,104.12200164794922z"/></g></g><g transform="matrix(1,0,0,1,1900.9580078125,1079.4620361328125)" opacity="1" style="display: block;"><g opacity="1" transform="matrix(1,0,0,1,0,0)"><path fill="url(#__lottie_element_3098)" fill-opacity="1" d=" M-91.95800018310547,16.538000106811523 C-91.95800018310547,16.538000106811523 10.041999816894531,-0.4620000123977661 21.04199981689453,-7.461999893188477 C32.04199981689453,-14.461999893188477 36.04199981689453,-35.46200180053711 41.04199981689453,-40.46200180053711 C46.04199981689453,-45.46200180053711 54.04199981689453,-54.46200180053711 65.04199981689453,-53.46200180053711 C76.04199981689453,-52.46200180053711 83.04199981689453,-35.46200180053711 90.04199981689453,-27.461999893188477 C97.04199981689453,-19.461999893188477 99.04199981689453,7.538000106811523 85.04199981689453,16.538000106811523 C71.04199981689453,25.538000106811523 60.04199981689453,11.538000106811523 44.04199981689453,8.538000106811523 C28.04199981689453,5.538000106811523 -66.95800018310547,37.53799819946289 -85.95800018310547,53.53799819946289 C-102.95800018310547,31.538000106811523 -91.95800018310547,16.538000106811523 -91.95800018310547,16.538000106811523z"/></g></g><g transform="matrix(1,0,0,1,1873.56396484375,1275.6090087890625)" opacity="1" style="display: block;"><g opacity="1" transform="matrix(1,0,0,1,0,0)"><path fill="url(#__lottie_element_3102)" fill-opacity="1" d=" M-46.56399917602539,-25.608999252319336 C-37.56399917602539,-18.608999252319336 -16.56399917602539,-4.609000205993652 -8.564000129699707,-14.609000205993652 C-0.5640000104904175,-24.608999252319336 14.435999870300293,-42.60900115966797 27.43600082397461,-33.60900115966797 C40.43600082397461,-24.608999252319336 52.43600082397461,-4.609000205993652 43.43600082397461,4.390999794006348 C34.43600082397461,13.390999794006348 24.43600082397461,43.39099884033203 10.435999870300293,34.39099884033203 C-3.563999891281128,25.391000747680664 -10.564000129699707,12.390999794006348 -27.56399917602539,11.390999794006348 C-44.56399917602539,10.390999794006348 -46.56399917602539,-25.608999252319336 -46.56399917602539,-25.608999252319336z"/></g></g><g transform="matrix(1,0,0,1,1957.06005859375,1355.1820068359375)" opacity="1" style="display: block;"><g opacity="1" transform="matrix(1,0,0,1,0,0)"><path fill="url(#__lottie_element_3106)" fill-opacity="1" d=" M-111.05999755859375,-35.18199920654297 C-105.05999755859375,-34.18199920654297 -53.060001373291016,-13.182000160217285 -3.059999942779541,-14.182000160217285 C46.939998626708984,-15.182000160217285 64.94000244140625,-21.18199920654297 72.94000244140625,-35.18199920654297 C80.94000244140625,-49.18199920654297 117.94000244140625,-39.18199920654297 117.94000244140625,-19.18199920654297 C117.94000244140625,0.8180000185966492 124.94000244140625,34.81800079345703 103.94000244140625,40.81800079345703 C82.94000244140625,46.81800079345703 85.94000244140625,20.81800079345703 55.939998626708984,12.817999839782715 C25.940000534057617,4.817999839782715 -36.060001373291016,-7.182000160217285 -62.060001373291016,-0.18199999630451202 C-88.05999755859375,6.817999839782715 -119.05999755859375,15.817999839782715 -119.05999755859375,15.817999839782715 C-119.05999755859375,15.817999839782715 -111.05999755859375,-35.18199920654297 -111.05999755859375,-35.18199920654297z"/></g></g><g transform="matrix(1,0,0,1,1862.5450439453125,1527.2850341796875)" opacity="1" style="display: block;"><g opacity="1" transform="matrix(1,0,0,1,0,0)"><path fill="url(#__lottie_element_3110)" fill-opacity="1" d=" M-57.54499816894531,-40.28499984741211 C-47.54499816894531,-34.28499984741211 -32.54499816894531,-20.28499984741211 -16.545000076293945,-18.28499984741211 C-0.5450000166893005,-16.28499984741211 13.454999923706055,-13.28499984741211 20.454999923706055,-29.28499984741211 C27.454999923706055,-45.28499984741211 59.45500183105469,-22.28499984741211 57.45500183105469,-4.284999847412109 C55.45500183105469,13.71500015258789 63.45500183105469,36.71500015258789 38.45500183105469,39.71500015258789 C13.454999923706055,42.71500015258789 4.454999923706055,33.71500015258789 0.45500001311302185,16.71500015258789 C-3.5450000762939453,-0.2849999964237213 -57.54499816894531,-13.28499984741211 -57.54499816894531,-13.28499984741211 C-57.54499816894531,-13.28499984741211 -57.54499816894531,-40.28499984741211 -57.54499816894531,-40.28499984741211z"/></g></g><g transform="matrix(1,0,0,1,1741.823974609375,1744.95703125)" opacity="1" style="display: block;"><g opacity="1" transform="matrix(1,0,0,1,0,0)"><path fill="url(#__lottie_element_3114)" fill-opacity="1" d=" M-46.82400131225586,-72.95700073242188 C-46.82400131225586,-72.95700073242188 -46.82400131225586,-41.957000732421875 -21.823999404907227,-19.957000732421875 C3.1760001182556152,2.0429999828338623 23.176000595092773,9.043000221252441 23.176000595092773,9.043000221252441 C23.176000595092773,9.043000221252441 64.1760025024414,9.043000221252441 63.17599868774414,22.042999267578125 C62.17599868774414,35.042999267578125 60.17599868774414,65.04299926757812 42.17599868774414,68.04299926757812 C24.176000595092773,71.04299926757812 2.1760001182556152,80.04299926757812 -3.8239998817443848,62.042999267578125 C-9.824000358581543,44.042999267578125 4.176000118255615,37.042999267578125 -0.8240000009536743,31.042999267578125 C-5.823999881744385,25.042999267578125 -20.823999404907227,-9.956999778747559 -50.82400131225586,-31.957000732421875 C-80.8239974975586,-53.957000732421875 -46.82400131225586,-72.95700073242188 -46.82400131225586,-72.95700073242188z"/></g></g><g transform="matrix(1,0,0,1,1711.4990234375,1859.06396484375)" opacity="1" style="display: block;"><g opacity="1" transform="matrix(1,0,0,1,0,0)"><path fill="url(#__lottie_element_3118)" fill-opacity="1" d=" M-51.499000549316406,-133.06399536132812 C-51.499000549316406,-133.06399536132812 -32.499000549316406,-57.06399917602539 -7.499000072479248,-29.06399917602539 C17.500999450683594,-1.0640000104904175 51.500999450683594,46.93600082397461 61.500999450683594,49.93600082397461 C71.5009994506836,52.93600082397461 98.5009994506836,48.93600082397461 105.5009994506836,59.93600082397461 C112.5009994506836,70.93599700927734 126.5009994506836,101.93599700927734 93.5009994506836,119.93599700927734 C60.500999450683594,137.93600463867188 37.500999450683594,136.93600463867188 37.500999450683594,119.93599700927734 C37.500999450683594,102.93599700927734 52.500999450683594,87.93599700927734 39.500999450683594,70.93599700927734 C26.500999450683594,53.93600082397461 -9.49899959564209,-12.064000129699707 -39.499000549316406,-34.06399917602539 C-69.4990005493164,-56.06399917602539 -113.4990005493164,-77.06400299072266 -114.4990005493164,-86.06400299072266 C-115.4990005493164,-95.06400299072266 -51.499000549316406,-133.06399536132812 -51.499000549316406,-133.06399536132812z"/></g></g><g transform="matrix(1,0,0,1,1523.467041015625,1910.4840087890625)" opacity="1" style="display: block;"><g opacity="1" transform="matrix(1,0,0,1,0,0)"><path fill="url(#__lottie_element_3122)" fill-opacity="1" d=" M-67.46700286865234,-87.48400115966797 C-64.46700286865234,-87.48400115966797 15.532999992370605,3.5160000324249268 4.5329999923706055,38.51599884033203 C-6.4670000076293945,73.51599884033203 -4.4670000076293945,89.51599884033203 5.5329999923706055,95.51599884033203 C15.532999992370605,101.51599884033203 51.53300094604492,98.51599884033203 58.53300094604492,88.51599884033203 C65.53299713134766,78.51599884033203 74.53299713134766,50.51599884033203 58.53300094604492,41.51599884033203 C42.53300094604492,32.51599884033203 27.533000946044922,36.51599884033203 19.533000946044922,16.516000747680664 C11.532999992370605,-3.4839999675750732 -25.466999053955078,-62.48400115966797 -27.466999053955078,-87.48400115966797 C-29.466999053955078,-112.48400115966797 -67.46700286865234,-87.48400115966797 -67.46700286865234,-87.48400115966797z"/></g></g><g transform="matrix(1,0,0,1,1379.698974609375,1895.68603515625)" opacity="1" style="display: block;"><g opacity="1" transform="matrix(1,0,0,1,0,0)"><path fill="url(#__lottie_element_3126)" fill-opacity="1" d=" M-43.69900131225586,-48.68600082397461 C-43.69900131225586,-48.68600082397461 -21.698999404907227,-27.68600082397461 -27.698999404907227,-12.685999870300293 C-33.69900131225586,2.313999891281128 -51.69900131225586,7.314000129699707 -43.69900131225586,32.31399917602539 C-35.69900131225586,57.31399917602539 -6.698999881744385,47.31399917602539 6.301000118255615,43.31399917602539 C19.301000595092773,39.31399917602539 55.30099868774414,17.31399917602539 43.30099868774414,0.3140000104904175 C31.301000595092773,-16.68600082397461 -7.698999881744385,-1.6859999895095825 -10.699000358581543,-25.68600082397461 C-13.699000358581543,-49.68600082397461 -43.69900131225586,-48.68600082397461 -43.69900131225586,-48.68600082397461z"/></g></g><g transform="matrix(1,0,0,1,1129.4599609375,1996.2509765625)" opacity="1" style="display: block;"><g opacity="1" transform="matrix(1,0,0,1,0,0)"><path fill="url(#__lottie_element_3130)" fill-opacity="1" d=" M88.54000091552734,-144.25100708007812 C88.54000091552734,-144.25100708007812 34.540000915527344,-115.2509994506836 27.540000915527344,-91.2509994506836 C20.540000915527344,-67.2509994506836 -21.459999084472656,42.749000549316406 -17.459999084472656,73.7490005493164 C-13.460000038146973,104.7490005493164 9.539999961853027,122.7490005493164 4.539999961853027,135.74899291992188 C-0.46000000834465027,148.74899291992188 -12.460000038146973,166.74899291992188 -48.459999084472656,155.74899291992188 C-84.45999908447266,144.74899291992188 -95.45999908447266,130.74899291992188 -84.45999908447266,112.7490005493164 C-73.45999908447266,94.7490005493164 -58.459999084472656,103.7490005493164 -48.459999084472656,75.7490005493164 C-38.459999084472656,47.749000549316406 -7.460000038146973,-51.250999450683594 -14.460000038146973,-92.2509994506836 C-21.459999084472656,-133.25100708007812 -29.459999084472656,-144.25100708007812 -29.459999084472656,-156.25100708007812 C-29.459999084472656,-167.0679931640625 88.54000091552734,-144.25100708007812 88.54000091552734,-144.25100708007812z"/></g></g><g transform="matrix(1,0,0,1,988.4609985351562,1903.9560546875)" opacity="1" style="display: block;"><g opacity="1" transform="matrix(1,0,0,1,0,0)"><path fill="url(#__lottie_element_3134)" fill-opacity="1" d=" M70.53900146484375,-75.95600128173828 C70.53900146484375,-75.95600128173828 9.538999557495117,-22.95599937438965 6.539000034332275,16.04400062561035 C3.5390000343322754,55.04399871826172 30.538999557495117,71.04399871826172 12.538999557495117,84.04399871826172 C-5.460999965667725,97.04399871826172 -13.461000442504883,102.04399871826172 -39.46099853515625,93.04399871826172 C-65.46099853515625,84.04399871826172 -77.46099853515625,49.04399871826172 -66.46099853515625,46.04399871826172 C-55.46099853515625,43.04399871826172 -27.461000442504883,38.04399871826172 -23.461000442504883,21.04400062561035 C-19.461000442504883,4.044000148773193 40.53900146484375,-72.95600128173828 42.53900146484375,-91.95600128173828 C44.53900146484375,-110.95600128173828 70.53900146484375,-75.95600128173828 70.53900146484375,-75.95600128173828z"/></g></g><g transform="matrix(1,0,0,1,781.2789916992188,1735.3289794921875)" opacity="1" style="display: block;"><g opacity="1" transform="matrix(1,0,0,1,0,0)"><path fill="url(#__lottie_element_3138)" fill-opacity="1" d=" M96.72100067138672,-49.32899856567383 C96.72100067138672,-49.32899856567383 42.72100067138672,-36.32899856567383 23.72100067138672,-18.32900047302246 C4.7210001945495605,-0.32899999618530273 -29.27899932861328,28.67099952697754 -28.27899932861328,37.67100143432617 C-27.27899932861328,46.67100143432617 -23.27899932861328,93.6709976196289 -58.27899932861328,82.6709976196289 C-93.27899932861328,71.6709976196289 -100.27899932861328,43.67100143432617 -95.27899932861328,30.67099952697754 C-90.27899932861328,17.67099952697754 -94.27899932861328,6.671000003814697 -70.27899932861328,9.670999526977539 C-46.27899932861328,12.670999526977539 -24.27899932861328,3.6710000038146973 -11.279000282287598,-9.329000473022461 C1.7209999561309814,-22.32900047302246 61.72100067138672,-84.3290023803711 61.72100067138672,-84.3290023803711 C61.72100067138672,-84.3290023803711 96.72100067138672,-49.32899856567383 96.72100067138672,-49.32899856567383z"/></g></g><g transform="matrix(1,0,0,1,771.0479736328125,1618.926025390625)" opacity="1" style="display: block;"><g opacity="1" transform="matrix(1,0,0,1,0,0)"><path fill="url(#__lottie_element_3142)" fill-opacity="1" d=" M24.95199966430664,-26.926000595092773 C24.95199966430664,-26.926000595092773 2.9519999027252197,-41.92599868774414 -20.04800033569336,-32.92599868774414 C-43.04800033569336,-23.926000595092773 -37.04800033569336,4.073999881744385 -27.04800033569336,16.073999404907227 C-17.04800033569336,28.073999404907227 19.95199966430664,47.07400131225586 31.95199966430664,27.073999404907227 C43.95199966430664,7.073999881744385 24.95199966430664,-26.926000595092773 24.95199966430664,-26.926000595092773z"/></g></g><g transform="matrix(1,0,0,1,669.7639770507812,1506.68994140625)" opacity="1" style="display: block;"><g opacity="1" transform="matrix(1,0,0,1,0,0)"><path fill="url(#__lottie_element_3146)" fill-opacity="1" d=" M94.23600006103516,-19.690000534057617 C94.23600006103516,-19.690000534057617 60.236000061035156,-28.690000534057617 15.236000061035156,-9.6899995803833 C-29.763999938964844,9.3100004196167 -36.763999938964844,25.309999465942383 -39.763999938964844,34.310001373291016 C-42.763999938964844,43.310001373291016 -64.76399993896484,51.310001373291016 -75.76399993896484,41.310001373291016 C-86.76399993896484,31.309999465942383 -102.76399993896484,-1.690000057220459 -88.76399993896484,-19.690000534057617 C-74.76399993896484,-37.689998626708984 -60.763999938964844,-26.690000534057617 -35.763999938964844,-19.690000534057617 C-10.763999938964844,-12.6899995803833 47.236000061035156,-36.689998626708984 57.236000061035156,-44.689998626708984 C67.23600006103516,-52.689998626708984 94.23600006103516,-19.690000534057617 94.23600006103516,-19.690000534057617z"/></g></g><g transform="matrix(1,0,0,1,585.77001953125,1315.634033203125)" opacity="1" style="display: block;"><g opacity="1" transform="matrix(1,0,0,1,0,0)"><path fill="url(#__lottie_element_3150)" fill-opacity="1" d=" M135.22999572753906,-49.63399887084961 C135.22999572753906,-49.63399887084961 106.2300033569336,-21.634000778198242 75.2300033569336,-17.634000778198242 C44.22999954223633,-13.633999824523926 -38.77000045776367,1.3660000562667847 -58.77000045776367,-8.633999824523926 C-78.7699966430664,-18.634000778198242 -94.7699966430664,-45.63399887084961 -115.7699966430664,-37.63399887084961 C-136.77000427246094,-29.634000778198242 -138.77000427246094,13.366000175476074 -134.77000427246094,24.365999221801758 C-130.77000427246094,35.36600112915039 -123.7699966430664,59.36600112915039 -98.7699966430664,45.36600112915039 C-73.7699966430664,31.365999221801758 -78.7699966430664,21.365999221801758 -44.77000045776367,16.365999221801758 C-10.770000457763672,11.366000175476074 82.2300033569336,4.366000175476074 113.2300033569336,18.365999221801758 C144.22999572753906,32.36600112915039 135.22999572753906,-49.63399887084961 135.22999572753906,-49.63399887084961z"/></g></g><g transform="matrix(1,0,0,1,661.8900146484375,1238.636962890625)" opacity="1" style="display: block;"><g opacity="1" transform="matrix(1,0,0,1,0,0)"><path fill="url(#__lottie_element_3154)" fill-opacity="1" d=" M60.11000061035156,-6.63700008392334 C38.11000061035156,1.3630000352859497 23.110000610351562,2.36299991607666 8.109999656677246,-0.6370000243186951 C-6.889999866485596,-3.63700008392334 -1.8899999856948853,-34.637001037597656 -33.88999938964844,-33.637001037597656 C-65.88999938964844,-32.637001037597656 -71.88999938964844,-9.63700008392334 -67.88999938964844,11.36299991607666 C-63.88999938964844,32.362998962402344 -46.88999938964844,40.362998962402344 -25.889999389648438,27.363000869750977 C-4.889999866485596,14.36299991607666 12.109999656677246,7.36299991607666 49.11000061035156,17.363000869750977 C86.11000061035156,27.363000869750977 60.11000061035156,-6.63700008392334 60.11000061035156,-6.63700008392334z"/></g></g><g transform="matrix(1,0,0,1,750.9630126953125,1006.5689697265625)" opacity="1" style="display: block;"><g opacity="1" transform="matrix(1,0,0,1,0,0)"><path fill="url(#__lottie_element_3158)" fill-opacity="1" d=" M30.03700065612793,36.430999755859375 C30.03700065612793,36.430999755859375 -1.9630000591278076,14.430999755859375 -1.9630000591278076,14.430999755859375 C-1.9630000591278076,14.430999755859375 -11.963000297546387,33.430999755859375 -28.96299934387207,25.430999755859375 C-45.9630012512207,17.430999755859375 -56.9630012512207,-5.568999767303467 -33.9630012512207,-26.569000244140625 C-10.963000297546387,-47.569000244140625 1.0369999408721924,-29.569000244140625 6.0370001792907715,-22.569000244140625 C11.036999702453613,-15.569000244140625 13.036999702453613,5.431000232696533 13.036999702453613,5.431000232696533 C13.036999702453613,5.431000232696533 47.0369987487793,26.430999755859375 47.0369987487793,26.430999755859375 C47.0369987487793,26.430999755859375 30.03700065612793,36.430999755859375 30.03700065612793,36.430999755859375z"/></g></g><g transform="matrix(1,0,0,1,817.7030029296875,833.5590209960938)" opacity="1" style="display: block;"><g opacity="1" transform="matrix(1,0,0,1,0,0)"><path fill="url(#__lottie_element_3162)" fill-opacity="1" d=" M53.297000885009766,87.44100189208984 C53.297000885009766,87.44100189208984 8.29699993133545,6.440999984741211 -31.702999114990234,-12.559000015258789 C-71.7030029296875,-31.55900001525879 -72.77100372314453,-21.740999221801758 -86.7030029296875,-21.55900001525879 C-94.26000213623047,-21.459999084472656 -106.03500366210938,-33.73099899291992 -103.7030029296875,-46.558998107910156 C-101.7030029296875,-57.558998107910156 -95.7030029296875,-69.55899810791016 -72.7030029296875,-80.55899810791016 C-49.702999114990234,-91.55899810791016 -41.702999114990234,-95.55899810791016 -32.702999114990234,-74.55899810791016 C-23.702999114990234,-53.558998107910156 -32.702999114990234,-46.558998107910156 -32.702999114990234,-46.558998107910156 C-32.702999114990234,-46.558998107910156 35.297000885009766,42.441001892089844 87.2969970703125,70.44100189208984 C139.2969970703125,98.44100189208984 53.297000885009766,87.44100189208984 53.297000885009766,87.44100189208984z"/></g></g><g transform="matrix(1,0,0,1,940.0289916992188,691.0819702148438)" opacity="1" style="display: block;"><g opacity="1" transform="matrix(1,0,0,1,0,0)"><path fill="url(#__lottie_element_3166)" fill-opacity="1" d=" M102.97100067138672,87.91799926757812 C102.97100067138672,87.91799926757812 60.97100067138672,66.91799926757812 47.97100067138672,46.917999267578125 C34.97100067138672,26.917999267578125 -18.02899932861328,-38.082000732421875 -18.02899932861328,-72.08200073242188 C-18.02899932861328,-106.08200073242188 3.9709999561309814,-110.08200073242188 -7.0289998054504395,-126.08200073242188 C-18.02899932861328,-142.08200073242188 -39.02899932861328,-151.08200073242188 -68.02899932861328,-133.08200073242188 C-97.02899932861328,-115.08200073242188 -120.02899932861328,-73.08200073242188 -86.02899932861328,-68.08200073242188 C-52.02899932861328,-63.082000732421875 -43.02899932861328,-83.08200073242188 -18.02899932861328,-32.082000732421875 C6.9710001945495605,18.917999267578125 41.97100067138672,78.91799926757812 41.97100067138672,95.91799926757812 C41.97100067138672,112.91799926757812 40.97100067138672,144.91799926757812 49.97100067138672,142.91799926757812 C58.97100067138672,140.91799926757812 102.97100067138672,87.91799926757812 102.97100067138672,87.91799926757812z"/></g></g><g transform="matrix(1,0,0,1,1971.697998046875,1125.458984375)" opacity="1" style="display: block;"><g opacity="1" transform="matrix(1,0,0,1,0,0)"><path fill="url(#__lottie_element_3170)" fill-opacity="1" d=" M-153.697998046875,-9.458999633789062 C-153.697998046875,-9.458999633789062 -141.697998046875,11.541000366210938 -97.697998046875,7.540999889373779 C-53.698001861572266,3.5409998893737793 50.301998138427734,4.540999889373779 76.302001953125,-28.458999633789062 C102.302001953125,-61.45899963378906 119.302001953125,-98.45899963378906 140.302001953125,-59.45899963378906 C161.302001953125,-20.458999633789062 163.302001953125,3.5409998893737793 154.302001953125,17.541000366210938 C145.302001953125,31.541000366210938 114.302001953125,42.54100036621094 98.302001953125,24.541000366210938 C82.302001953125,6.540999889373779 59.301998138427734,6.540999889373779 8.302000045776367,15.541000366210938 C-42.698001861572266,24.541000366210938 -112.697998046875,70.54100036621094 -128.697998046875,75.54100036621094 C-144.697998046875,80.54100036621094 -155.697998046875,56.54100036621094 -158.697998046875,28.541000366210938 C-161.697998046875,0.5410000085830688 -153.697998046875,-9.458999633789062 -153.697998046875,-9.458999633789062z"/></g></g><g transform="matrix(1,0,0,1,636.3870239257812,1607.3189697265625)" opacity="1" style="display: block;"><g opacity="1" transform="matrix(1,0,0,1,0,0)"><path fill="url(#__lottie_element_3174)" fill-opacity="1" d=" M109.61299896240234,-100.31900024414062 C109.61299896240234,-100.31900024414062 94.61299896240234,-62.319000244140625 20.613000869750977,-24.319000244140625 C-53.387001037597656,13.680999755859375 -68.38700103759766,17.680999755859375 -103.38700103759766,11.680999755859375 C-138.38699340820312,5.681000232696533 -149.38699340820312,29.680999755859375 -130.38699340820312,64.68099975585938 C-111.38700103759766,99.68099975585938 -91.38700103759766,110.68099975585938 -75.38700103759766,89.68099975585938 C-59.387001037597656,68.68099975585938 -84.38700103759766,56.680999755859375 -38.387001037597656,31.680999755859375 C7.61299991607666,6.681000232696533 48.612998962402344,-18.319000244140625 85.61299896240234,-24.319000244140625 C122.61299896240234,-30.319000244140625 139.61300659179688,-24.319000244140625 139.61300659179688,-24.319000244140625 C139.61300659179688,-24.319000244140625 109.61299896240234,-100.31900024414062 109.61299896240234,-100.31900024414062z"/></g></g><g transform="matrix(1,0,0,1,713.9860229492188,874.9959716796875)" opacity="1" style="display: block;"><g opacity="1" transform="matrix(1,0,0,1,0,0)"><path fill="url(#__lottie_element_3178)" fill-opacity="1" d=" M84.01399993896484,123.00399780273438 C84.01399993896484,123.00399780273438 93.01399993896484,78.00399780273438 50.013999938964844,48.00400161743164 C7.013999938964844,18.003999710083008 -39.986000061035156,-37.99599838256836 -77.98600006103516,-40.99599838256836 C-115.98600006103516,-43.99599838256836 -130.98599243164062,-12.996000289916992 -145.98599243164062,-40.99599838256836 C-160.98599243164062,-68.99600219726562 -124.98600006103516,-96.99600219726562 -113.98600006103516,-110.99600219726562 C-102.98600006103516,-124.99600219726562 -60.986000061035156,-131.99600219726562 -62.986000061035156,-101.99600219726562 C-64.98600006103516,-71.99600219726562 -49.986000061035156,-57.99599838256836 -31.986000061035156,-40.99599838256836 C-13.986000061035156,-23.996000289916992 29.013999938964844,15.003999710083008 62.013999938964844,28.003999710083008 C95.01399993896484,41.00400161743164 127.01399993896484,40.00400161743164 142.01400756835938,43.00400161743164 C157.01400756835938,46.00400161743164 148.01400756835938,85.00399780273438 130.01400756835938,103.00399780273438 C112.01399993896484,121.00399780273438 84.01399993896484,123.00399780273438 84.01399993896484,123.00399780273438z"/></g></g></g><g transform="matrix(0.4994417130947113,-0.023621320724487305,0.023621320724487305,0.4994417130947113,757.5,712.0267333984375)" opacity="1" style="display: block;"><g opacity="1" transform="matrix(1,0,0,1,0,0)"><path fill="url(#__lottie_element_3055)" fill-opacity="1" d=" M575.5,0 C575.5,317.8399963378906 317.8399963378906,575.5 0,575.5 C-317.8399963378906,575.5 -575.5,317.8399963378906 -575.5,0 C-575.5,-317.8399963378906 -317.8399963378906,-575.5 0,-575.5 C317.8399963378906,-575.5 575.5,-317.8399963378906 575.5,0z"/></g></g><g clip-path="url(#__lottie_element_3060)" transform="matrix(0.4994417130947113,-0.023621320724487305,0.023621320724487305,0.4994417130947113,88.74368286132812,92.67902374267578)" opacity="1" style="display: block;"><g transform="matrix(1,0,0,1,1202,595.5499877929688)" opacity="1" style="display: block;"><g opacity="1" transform="matrix(1,0,0,1,0,0)"><path fill="url(#__lottie_element_3182)" fill-opacity="1" d=" M-29,151.4499969482422 C-29,151.4499969482422 -4,131.4499969482422 -7,103.44999694824219 C-10,75.44999694824219 -6,-53.54999923706055 -18,-71.55000305175781 C-30,-89.55000305175781 -65,-99.55000305175781 -65,-114.55000305175781 C-65,-129.5500030517578 -51,-157.5500030517578 -7,-157.5500030517578 C37,-157.5500030517578 57,-155.5500030517578 48,-132.5500030517578 C39,-109.55000305175781 13,-101.55000305175781 13,-79.55000305175781 C13,-57.54999923706055 9,61.45000076293945 37,101.44999694824219 C65,141.4499969482422 65,141.4499969482422 65,141.4499969482422 C65,141.4499969482422 59,152.4499969482422 20,156.4499969482422 C-20.979999542236328,160.6529998779297 -29,151.4499969482422 -29,151.4499969482422z"/></g></g><g transform="matrix(1,0,0,1,1279.5460205078125,724.447998046875)" opacity="1" style="display: block;"><g opacity="1" transform="matrix(1,0,0,1,0,0)"><path fill="url(#__lottie_element_3186)" fill-opacity="1" d=" M-0.5460000038146973,178.552001953125 C-40.70000076293945,180.46400451660156 -55.54600143432617,157.552001953125 -54.54600143432617,138.552001953125 C-53.54600143432617,119.552001953125 -31.54599952697754,118.552001953125 -29.54599952697754,110.552001953125 C-27.54599952697754,102.552001953125 -14.545999526977539,-14.447999954223633 -17.54599952697754,-48.448001861572266 C-20.54599952697754,-82.447998046875 -49.54600143432617,-88.447998046875 -54.54600143432617,-103.447998046875 C-59.54600143432617,-118.447998046875 -81.5459976196289,-153.447998046875 -41.54600143432617,-169.447998046875 C-1.5460000038146973,-185.447998046875 24.45400047302246,-179.447998046875 48.45399856567383,-160.447998046875 C72.4540023803711,-141.447998046875 67.4540023803711,-107.447998046875 52.45399856567383,-99.447998046875 C37.45399856567383,-91.447998046875 7.453999996185303,-74.447998046875 9.454000473022461,-33.448001861572266 C11.454000473022461,7.552000045776367 15.454000473022461,92.552001953125 25.45400047302246,108.552001953125 C35.45399856567383,124.552001953125 49.45399856567383,132.552001953125 49.45399856567383,132.552001953125 C49.45399856567383,132.552001953125 62.45399856567383,175.552001953125 -0.5460000038146973,178.552001953125z"/></g></g><g transform="matrix(1,0,0,1,1550.6829833984375,658.0700073242188)" opacity="1" style="display: block;"><g opacity="1" transform="matrix(1,0,0,1,0,0)"><path fill="url(#__lottie_element_3190)" fill-opacity="1" d=" M-107.68299865722656,119.93000030517578 C-107.68299865722656,119.93000030517578 -75.68299865722656,108.93000030517578 -59.68299865722656,83.93000030517578 C-43.68299865722656,58.93000030517578 4.316999912261963,-32.06999969482422 8.317000389099121,-53.06999969482422 C12.317000389099121,-74.06999969482422 12.317000389099121,-96.06999969482422 12.317000389099121,-96.06999969482422 C12.317000389099121,-96.06999969482422 -7.683000087738037,-127.06999969482422 -2.683000087738037,-142.07000732421875 C2.316999912261963,-157.07000732421875 22.316999435424805,-177.07000732421875 66.31700134277344,-152.07000732421875 C110.31700134277344,-127.06999969482422 108.31700134277344,-124.06999969482422 107.31700134277344,-112.06999969482422 C106.31700134277344,-100.06999969482422 87.31700134277344,-87.06999969482422 69.31700134277344,-81.06999969482422 C51.31700134277344,-75.06999969482422 31.316999435424805,-52.06999969482422 19.316999435424805,-22.06999969482422 C7.316999912261963,7.929999828338623 -29.683000564575195,97.93000030517578 -26.683000564575195,119.93000030517578 C-23.683000564575195,141.92999267578125 -13.682999610900879,155.92999267578125 -13.682999610900879,155.92999267578125 C-13.682999610900879,155.92999267578125 -22.683000564575195,173.92999267578125 -62.68299865722656,155.92999267578125 C-102.68299865722656,137.92999267578125 -107.68299865722656,119.93000030517578 -107.68299865722656,119.93000030517578z"/></g></g><g transform="matrix(1,0,0,1,1688.426025390625,733.1420288085938)" opacity="1" style="display: block;"><g opacity="1" transform="matrix(1,0,0,1,0,0)"><path fill="url(#__lottie_element_3194)" fill-opacity="1" d=" M-107.4260025024414,79.85800170898438 C-107.4260025024414,79.85800170898438 -85.4260025024414,75.85800170898438 -75.4260025024414,67.85800170898438 C-65.4260025024414,59.858001708984375 -4.426000118255615,-7.142000198364258 10.574000358581543,-30.142000198364258 C25.573999404907227,-53.141998291015625 32.57400131225586,-62.141998291015625 31.573999404907227,-75.14199829101562 C30.573999404907227,-88.14199829101562 20.573999404907227,-94.14199829101562 24.573999404907227,-106.14199829101562 C28.573999404907227,-118.14199829101562 52.57400131225586,-138.14199829101562 83.5739974975586,-112.14199829101562 C114.5739974975586,-86.14199829101562 109.5739974975586,-70.14199829101562 100.5739974975586,-63.141998291015625 C91.5739974975586,-56.141998291015625 66.5739974975586,-60.141998291015625 52.57400131225586,-48.141998291015625 C38.57400131225586,-36.141998291015625 7.573999881744385,0.8579999804496765 -9.425999641418457,28.857999801635742 C-26.426000595092773,56.858001708984375 -42.42599868774414,89.85800170898438 -42.42599868774414,96.85800170898438 C-42.42599868774414,103.85800170898438 -43.42599868774414,124.85800170898438 -43.42599868774414,124.85800170898438 C-43.42599868774414,124.85800170898438 -56.42599868774414,117.85800170898438 -74.4260025024414,104.85800170898438 C-92.4260025024414,91.85800170898438 -107.4260025024414,79.85800170898438 -107.4260025024414,79.85800170898438z"/></g></g><g transform="matrix(1,0,0,1,1666.3680419921875,891.3159790039062)" opacity="1" style="display: block;"><g opacity="1" transform="matrix(1,0,0,1,0,0)"><path fill="url(#__lottie_element_3198)" fill-opacity="1" d=" M-99.36799621582031,60.683998107910156 C-99.36799621582031,60.683998107910156 -113.36799621582031,50.683998107910156 -139.3679962158203,60.683998107910156 C-165.3679962158203,70.68399810791016 -144.3679962158203,110.68399810791016 -128.3679962158203,128.6840057373047 C-112.36799621582031,146.6840057373047 -71.36799621582031,158.6840057373047 -59.36800003051758,143.6840057373047 C-47.36800003051758,128.6840057373047 -56.36800003051758,113.68399810791016 -55.36800003051758,103.68399810791016 C-54.36800003051758,93.68399810791016 -12.368000030517578,31.68400001525879 21.631999969482422,-1.315999984741211 C55.63199996948242,-34.316001892089844 74.63200378417969,-38.316001892089844 95.63200378417969,-33.316001892089844 C116.63200378417969,-28.31599998474121 151.6320037841797,-25.31599998474121 151.6320037841797,-69.31600189208984 C151.6320037841797,-113.31600189208984 144.6320037841797,-119.31600189208984 116.63200378417969,-138.3159942626953 C88.63200378417969,-157.3159942626953 51.63199996948242,-155.3159942626953 38.63199996948242,-123.31600189208984 C25.631999969482422,-91.31600189208984 42.63199996948242,-82.31600189208984 31.631999969482422,-63.316001892089844 C20.631999969482422,-44.316001892089844 2.631999969482422,-19.31599998474121 -31.368000030517578,11.684000015258789 C-65.36799621582031,42.683998107910156 -99.36799621582031,60.683998107910156 -99.36799621582031,60.683998107910156z"/></g></g><g transform="matrix(1,0,0,1,1843.2640380859375,868.6959838867188)" opacity="1" style="display: block;"><g opacity="1" transform="matrix(1,0,0,1,0,0)"><path fill="url(#__lottie_element_3202)" fill-opacity="1" d=" M-155.26400756835938,50.30400085449219 C-155.26400756835938,50.30400085449219 -138.26400756835938,64.30400085449219 -91.26399993896484,42.30400085449219 C-44.263999938964844,20.304000854492188 42.736000061035156,-44.69599914550781 54.736000061035156,-65.69599914550781 C66.73600006103516,-86.69599914550781 49.736000061035156,-115.69599914550781 76.73600006103516,-127.69599914550781 C103.73600006103516,-139.6959991455078 112.73600006103516,-119.69599914550781 131.73599243164062,-100.69599914550781 C150.73599243164062,-81.69599914550781 167.73599243164062,-62.69599914550781 144.73599243164062,-46.69599914550781 C121.73600006103516,-30.695999145507812 109.73600006103516,-45.69599914550781 82.73600006103516,-38.69599914550781 C55.736000061035156,-31.695999145507812 -7.263999938964844,-0.6959999799728394 -31.263999938964844,34.30400085449219 C-55.263999938964844,69.30400085449219 -77.26399993896484,88.30400085449219 -86.26399993896484,103.30400085449219 C-95.26399993896484,118.30400085449219 -92.26399993896484,131.3040008544922 -92.26399993896484,131.3040008544922 C-92.26399993896484,131.3040008544922 -120.26399993896484,133.3040008544922 -140.26400756835938,101.30400085449219 C-160.26400756835938,69.30400085449219 -155.26400756835938,50.30400085449219 -155.26400756835938,50.30400085449219z"/></g></g><g transform="matrix(1,0,0,1,1928.239013671875,1187.052978515625)" opacity="1" style="display: block;"><g opacity="1" transform="matrix(1,0,0,1,0,0)"><path fill="url(#__lottie_element_3206)" fill-opacity="1" d=" M-169.23899841308594,-25.05299949645996 C-169.23899841308594,-25.05299949645996 -158.23899841308594,-22.05299949645996 -146.23899841308594,-14.053000450134277 C-134.23899841308594,-6.052999973297119 -126.23899841308594,-4.052999973297119 -101.23899841308594,-2.052999973297119 C-76.23899841308594,-0.05299999937415123 -44.23899841308594,10.946999549865723 -0.23899999260902405,-2.052999973297119 C43.76100158691406,-15.053000450134277 75.76100158691406,-18.05299949645996 87.76100158691406,-35.053001403808594 C99.76100158691406,-52.053001403808594 89.76100158691406,-85.0530014038086 147.76100158691406,-82.0530014038086 C205.76100158691406,-79.0530014038086 193.76100158691406,20.94700050354004 172.76100158691406,31.94700050354004 C151.76100158691406,42.946998596191406 139.76100158691406,34.946998596191406 101.76100158691406,14.946999549865723 C63.76100158691406,-5.052999973297119 -16.23900032043457,17.94700050354004 -71.23899841308594,31.94700050354004 C-126.23899841308594,45.946998596191406 -145.23899841308594,81.9469985961914 -145.23899841308594,81.9469985961914 C-145.23899841308594,81.9469985961914 -183.23899841308594,88.9469985961914 -189.23899841308594,34.946998596191406 C-195.05099487304688,-17.36199951171875 -169.23899841308594,-25.05299949645996 -169.23899841308594,-25.05299949645996z"/></g></g><g transform="matrix(1,0,0,1,1986.60498046875,1448.60205078125)" opacity="1" style="display: block;"><g opacity="1" transform="matrix(1,0,0,1,0,0)"><path fill="url(#__lottie_element_3210)" fill-opacity="1" d=" M-143.34100341796875,-79.12100219726562 C-143.34100341796875,-79.12100219726562 -135.60499572753906,-53.60200119018555 -112.6050033569336,-45.60200119018555 C-89.6050033569336,-37.60200119018555 -28.604999542236328,-10.60200023651123 26.395000457763672,-4.6020002365112305 C81.3949966430664,1.3980000019073486 90.3949966430664,-0.6019999980926514 103.3949966430664,-8.60200023651123 C116.3949966430664,-16.601999282836914 116.3949966430664,-31.601999282836914 144.39500427246094,-21.601999282836914 C172.39500427246094,-11.60200023651123 166.39500427246094,17.398000717163086 159.39500427246094,38.39799880981445 C152.39500427246094,59.39799880981445 138.39500427246094,88.39800262451172 121.3949966430664,78.39800262451172 C104.3949966430664,68.39800262451172 108.3949966430664,53.39799880981445 80.3949966430664,38.39799880981445 C52.39500045776367,23.398000717163086 -40.60499954223633,4.3979997634887695 -85.6050033569336,0.39800000190734863 C-130.60499572753906,-3.6019999980926514 -159.60499572753906,13.39799976348877 -159.60499572753906,13.39799976348877 C-159.60499572753906,13.39799976348877 -171.60499572753906,12.39799976348877 -160.60499572753906,-39.60200119018555 C-149.60499572753906,-91.60199737548828 -143.34100341796875,-79.12100219726562 -143.34100341796875,-79.12100219726562z"/></g></g><g transform="matrix(1,0,0,1,1867.136962890625,1721.1510009765625)" opacity="1" style="display: block;"><g opacity="1" transform="matrix(1,0,0,1,0,0)"><path fill="url(#__lottie_element_3214)" fill-opacity="1" d=" M-101.13700103759766,-128.15199279785156 C-101.13700103759766,-128.15199279785156 -93.13700103759766,-101.1520004272461 -81.13700103759766,-86.1520004272461 C-69.13700103759766,-71.1520004272461 -3.13700008392334,-11.152000427246094 23.863000869750977,4.8480000495910645 C50.862998962402344,20.847999572753906 73.86299896240234,36.847999572753906 89.86299896240234,37.847999572753906 C105.86299896240234,38.847999572753906 116.86299896240234,24.847999572753906 140.86300659179688,37.847999572753906 C164.86300659179688,50.847999572753906 148.86300659179688,79.8479995727539 134.86300659179688,96.8479995727539 C120.86299896240234,113.8479995727539 108.86299896240234,143.84800720214844 79.86299896240234,118.8479995727539 C50.862998962402344,93.8479995727539 90.86299896240234,91.8479995727539 46.862998962402344,55.847999572753906 C2.86299991607666,19.847999572753906 -41.137001037597656,-26.152000427246094 -80.13700103759766,-40.152000427246094 C-119.13700103759766,-54.152000427246094 -151.13699340820312,-55.152000427246094 -151.13699340820312,-55.152000427246094 C-151.13699340820312,-55.152000427246094 -161.13699340820312,-65.1520004272461 -137.13699340820312,-99.1520004272461 C-113.13700103759766,-133.15199279785156 -101.13700103759766,-128.15199279785156 -101.13700103759766,-128.15199279785156z"/></g></g><g transform="matrix(1,0,0,1,1845.39599609375,1597.3909912109375)" opacity="1" style="display: block;"><g opacity="1" transform="matrix(1,0,0,1,0,0)"><path fill="url(#__lottie_element_3218)" fill-opacity="1" d=" M-126.39600372314453,-38.39099884033203 C-126.39600372314453,-38.39099884033203 -166.39599609375,-29.391000747680664 -166.39599609375,-29.391000747680664 C-166.39599609375,-29.391000747680664 -198.39599609375,-45.39099884033203 -174.39599609375,-93.39099884033203 C-150.39599609375,-141.39100646972656 -112.39600372314453,-126.39099884033203 -112.39600372314453,-126.39099884033203 C-112.39600372314453,-126.39099884033203 -109.39600372314453,-117.39099884033203 -103.39600372314453,-99.39099884033203 C-97.39600372314453,-81.39099884033203 -39.395999908447266,-27.391000747680664 17.604000091552734,-4.390999794006348 C74.60399627685547,18.608999252319336 106.60399627685547,15.609000205993652 119.60399627685547,7.609000205993652 C132.60400390625,-0.39100000262260437 163.60400390625,-22.391000747680664 179.60400390625,32.60900115966797 C195.60400390625,87.60900115966797 156.60400390625,128.60899353027344 126.60399627685547,128.60899353027344 C96.60399627685547,128.60899353027344 76.60399627685547,105.60900115966797 70.60399627685547,69.60900115966797 C64.60399627685547,33.60900115966797 17.604000091552734,2.6089999675750732 -40.395999908447266,-11.390999794006348 C-98.39600372314453,-25.391000747680664 -126.39600372314453,-38.39099884033203 -126.39600372314453,-38.39099884033203z"/></g></g><g transform="matrix(1,0,0,1,1649.5050048828125,1894.967041015625)" opacity="1" style="display: block;"><g opacity="1" transform="matrix(1,0,0,1,0,0)"><path fill="url(#__lottie_element_3222)" fill-opacity="1" d=" M-35.505001068115234,-162.9669952392578 C-35.505001068115234,-162.9669952392578 -49.07699966430664,-152.37100219726562 -44.79100036621094,-131.66900634765625 C-40.505001068115234,-110.96700286865234 -25.5049991607666,-51.96699905395508 -5.505000114440918,-21.966999053955078 C14.494999885559082,8.032999992370605 57.494998931884766,66.03299713134766 72.49500274658203,77.03299713134766 C87.49500274658203,88.03299713134766 104.49500274658203,68.03299713134766 123.49500274658203,89.03299713134766 C142.4949951171875,110.03299713134766 140.4949951171875,139.0330047607422 99.49500274658203,158.0330047607422 C58.494998931884766,177.0330047607422 24.4950008392334,185.0330047607422 23.4950008392334,158.0330047607422 C22.4950008392334,131.0330047607422 44.494998931884766,129.0330047607422 29.4950008392334,97.03299713134766 C14.494999885559082,65.03299713134766 12.494999885559082,26.033000946044922 -13.505000114440918,-4.9670000076293945 C-39.505001068115234,-35.96699905395508 -63.505001068115234,-103.96700286865234 -88.50499725341797,-105.96700286865234 C-113.50499725341797,-107.96700286865234 -130.5050048828125,-105.96700286865234 -130.5050048828125,-105.96700286865234 C-130.5050048828125,-105.96700286865234 -154.5050048828125,-134.9669952392578 -92.50499725341797,-162.9669952392578 C-30.5049991607666,-190.9669952392578 -35.505001068115234,-162.9669952392578 -35.505001068115234,-162.9669952392578z"/></g></g><g transform="matrix(1,0,0,1,1439.175048828125,1997.0340576171875)" opacity="1" style="display: block;"><g opacity="1" transform="matrix(1,0,0,1,0,0)"><path fill="url(#__lottie_element_3226)" fill-opacity="1" d=" M11.824999809265137,-150.03399658203125 C11.824999809265137,-150.03399658203125 -12.175000190734863,-115.03399658203125 -1.1749999523162842,-53.034000396728516 C9.824999809265137,8.965999603271484 12.824999809265137,65.96600341796875 34.82500076293945,81.96600341796875 C56.82500076293945,97.96600341796875 69.82499694824219,89.96600341796875 74.82499694824219,113.96600341796875 C79.82499694824219,137.96600341796875 71.82499694824219,151.96600341796875 35.82500076293945,157.96600341796875 C-0.17499999701976776,163.96600341796875 -22.174999237060547,157.96600341796875 -18.174999237060547,137.96600341796875 C-14.175000190734863,117.96600341796875 -6.175000190734863,120.96600341796875 -0.17499999701976776,91.96600341796875 C5.824999809265137,62.965999603271484 0.824999988079071,43.965999603271484 -14.175000190734863,-5.033999919891357 C-29.174999237060547,-54.034000396728516 -35.17499923706055,-99.03399658203125 -76.17500305175781,-128.03399658203125 C-76.17500305175781,-128.03399658203125 -74.17500305175781,-147.03399658203125 -37.17499923706055,-157.03399658203125 C-0.17499999701976776,-167.03399658203125 11.824999809265137,-150.03399658203125 11.824999809265137,-150.03399658203125z"/></g></g><g transform="matrix(1,0,0,1,1284.0579833984375,1984.5379638671875)" opacity="1" style="display: block;"><g opacity="1" transform="matrix(1,0,0,1,0,0)"><path fill="url(#__lottie_element_3230)" fill-opacity="1" d=" M44.94200134277344,-166.53799438476562 C44.94200134277344,-166.53799438476562 48.94200134277344,-153.53799438476562 34.94200134277344,-144.53799438476562 C20.941999435424805,-135.53799438476562 8.942000389099121,-111.53800201416016 8.942000389099121,-55.53799819946289 C8.942000389099121,0.4620000123977661 -6.058000087738037,60.46200180053711 21.941999435424805,93.46199798583984 C49.94200134277344,126.46199798583984 52.94200134277344,121.46199798583984 57.94200134277344,145.46200561523438 C62.94200134277344,169.46200561523438 53.94200134277344,185.46200561523438 4.941999912261963,187.46200561523438 C-44.05799865722656,189.46200561523438 -59.05799865722656,170.46200561523438 -57.05799865722656,152.46200561523438 C-55.05799865722656,134.46200561523438 -38.05799865722656,107.46199798583984 -23.058000564575195,101.46199798583984 C-8.057999610900879,95.46199798583984 -9.057999610900879,37.46200180053711 -9.057999610900879,17.461999893188477 C-9.057999610900879,-2.5380001068115234 -9.057999610900879,-120.53800201416016 -29.058000564575195,-134.53799438476562 C-49.05799865722656,-148.53799438476562 -65.05799865722656,-150.53799438476562 -57.05799865722656,-164.53799438476562 C-49.05799865722656,-178.53799438476562 -48.05799865722656,-188.53799438476562 -0.057999998331069946,-187.53799438476562 C47.94200134277344,-186.53799438476562 44.94200134277344,-166.53799438476562 44.94200134277344,-166.53799438476562z"/></g></g><g transform="matrix(1,0,0,1,963.0880126953125,1925.6419677734375)" opacity="1" style="display: block;"><g opacity="1" transform="matrix(1,0,0,1,0,0)"><path fill="url(#__lottie_element_3234)" fill-opacity="1" d=" M115.91200256347656,-119.64199829101562 C115.91200256347656,-119.64199829101562 97.91200256347656,-119.64199829101562 77.91200256347656,-105.64199829101562 C57.9119987487793,-91.64199829101562 8.911999702453613,-9.642000198364258 1.9119999408721924,18.357999801635742 C-5.0879998207092285,46.358001708984375 -24.08799934387207,67.35800170898438 -17.08799934387207,101.35800170898438 C-10.088000297546387,135.35800170898438 15.911999702453613,162.35800170898438 -19.08799934387207,169.35800170898438 C-54.0880012512207,176.35800170898438 -73.08799743652344,169.35800170898438 -95.08799743652344,150.35800170898438 C-117.08799743652344,131.35800170898438 -128.08799743652344,111.35800170898438 -95.08799743652344,92.35800170898438 C-62.0880012512207,73.35800170898438 -56.0880012512207,96.35800170898438 -37.0880012512207,59.358001708984375 C-18.08799934387207,22.357999801635742 41.9119987487793,-66.64199829101562 38.9119987487793,-98.64199829101562 C35.9119987487793,-130.64199829101562 30.91200065612793,-139.64199829101562 24.91200065612793,-153.64199829101562 C18.91200065612793,-167.64199829101562 38.9119987487793,-180.64199829101562 77.91200256347656,-164.64199829101562 C116.91200256347656,-148.64199829101562 115.91200256347656,-119.64199829101562 115.91200256347656,-119.64199829101562z"/></g></g><g transform="matrix(1,0,0,1,829.801025390625,1854.991943359375)" opacity="1" style="display: block;"><g opacity="1" transform="matrix(1,0,0,1,0,0)"><path fill="url(#__lottie_element_3238)" fill-opacity="1" d=" M121.1989974975586,-82.99199676513672 C121.1989974975586,-82.99199676513672 130.14999389648438,-100.4260025024414 92.1989974975586,-126.99199676513672 C52.19900131225586,-154.99200439453125 51.19900131225586,-139.99200439453125 51.19900131225586,-139.99200439453125 C51.19900131225586,-139.99200439453125 54.19900131225586,-105.99199676513672 40.19900131225586,-82.99199676513672 C26.198999404907227,-59.992000579833984 -5.801000118255615,4.007999897003174 -37.80099868774414,31.007999420166016 C-69.8010025024414,58.007999420166016 -79.8010025024414,48.007999420166016 -104.8010025024414,61.007999420166016 C-129.80099487304688,74.00800323486328 -128.80099487304688,108.00800323486328 -94.8010025024414,130.00799560546875 C-60.80099868774414,152.00799560546875 -32.80099868774414,145.00799560546875 -31.801000595092773,130.00799560546875 C-30.801000595092773,115.00800323486328 -52.80099868774414,95.00800323486328 -32.80099868774414,71.00800323486328 C-12.800999641418457,47.007999420166016 4.198999881744385,8.008000373840332 27.198999404907227,-14.991999626159668 C50.19900131225586,-37.992000579833984 73.1989974975586,-66.99199676513672 93.1989974975586,-70.99199676513672 C113.1989974975586,-74.99199676513672 121.1989974975586,-82.99199676513672 121.1989974975586,-82.99199676513672z"/></g></g><g transform="matrix(1,0,0,1,726.47900390625,1708.97900390625)" opacity="1" style="display: block;"><g opacity="1" transform="matrix(1,0,0,1,0,0)"><path fill="url(#__lottie_element_3242)" fill-opacity="1" d=" M92.52100372314453,-134.97900390625 C92.52100372314453,-134.97900390625 85.52100372314453,-100.97899627685547 85.52100372314453,-100.97899627685547 C85.52100372314453,-100.97899627685547 39.520999908447266,-41.979000091552734 -10.479000091552734,-5.979000091552734 C-60.479000091552734,30.020999908447266 -77.47899627685547,34.020999908447266 -106.47899627685547,31.020999908447266 C-135.47900390625,28.020999908447266 -146.47900390625,26.020999908447266 -158.47900390625,36.020999908447266 C-170.47900390625,46.020999908447266 -169.47900390625,76.02100372314453 -140.47900390625,111.02100372314453 C-111.47899627685547,146.02099609375 -81.47899627685547,142.02099609375 -72.47899627685547,128.02099609375 C-63.479000091552734,114.02100372314453 -72.47899627685547,95.02100372314453 -56.479000091552734,69.02100372314453 C-40.479000091552734,43.020999908447266 -5.479000091552734,5.020999908447266 37.520999908447266,-18.979000091552734 C80.52100372314453,-42.979000091552734 103.52100372314453,-56.979000091552734 126.52100372314453,-57.979000091552734 C149.52099609375,-58.979000091552734 158.52099609375,-53.979000091552734 158.52099609375,-53.979000091552734 C158.52099609375,-53.979000091552734 180.52099609375,-72.97899627685547 147.52099609375,-111.97899627685547 C114.52100372314453,-150.97900390625 92.52100372314453,-134.97900390625 92.52100372314453,-134.97900390625z"/></g></g><g transform="matrix(1,0,0,1,583.1519775390625,1380.0770263671875)" opacity="1" style="display: block;"><g opacity="1" transform="matrix(1,0,0,1,0,0)"><path fill="url(#__lottie_element_3246)" fill-opacity="1" d=" M171.84800720214844,-23.07699966430664 C182.88800048828125,32.124000549316406 162.84800720214844,30.92300033569336 162.84800720214844,30.92300033569336 C162.84800720214844,30.92300033569336 137.84800720214844,7.922999858856201 101.8479995727539,4.922999858856201 C65.8479995727539,1.9229999780654907 54.847999572753906,3.9230000972747803 -7.1519999504089355,10.92300033569336 C-69.1520004272461,17.92300033569336 -80.1520004272461,14.92300033569336 -95.1520004272461,30.92300033569336 C-110.1520004272461,46.92300033569336 -91.1520004272461,65.9229965209961 -134.15199279785156,67.9229965209961 C-177.15199279785156,69.9229965209961 -175.15199279785156,39.92300033569336 -175.15199279785156,18.92300033569336 C-175.15199279785156,-2.0769999027252197 -171.15199279785156,-35.07699966430664 -143.15199279785156,-34.07699966430664 C-115.1520004272461,-33.07699966430664 -112.1520004272461,-8.07699966430664 -78.1520004272461,-4.077000141143799 C-44.152000427246094,-0.07699999958276749 69.8479995727539,-19.07699966430664 88.8479995727539,-32.07699966430664 C107.8479995727539,-45.07699966430664 123.8479995727539,-54.07699966430664 132.84800720214844,-64.0770034790039 C142.8820037841797,-75.22599792480469 163.84800720214844,-63.07699966430664 171.84800720214844,-23.07699966430664z"/></g></g><g transform="matrix(1,0,0,1,590.0139770507812,1119.843017578125)" opacity="1" style="display: block;"><g opacity="1" transform="matrix(1,0,0,1,0,0)"><path fill="url(#__lottie_element_3250)" fill-opacity="1" d=" M123.98600006103516,76.15699768066406 C123.98600006103516,76.15699768066406 106.98600006103516,51.15700149536133 97.98600006103516,46.15700149536133 C76.06199645996094,33.97700119018555 30.986000061035156,6.1570000648498535 -7.013999938964844,1.156999945640564 C-45.013999938964844,-3.8429999351501465 -55.013999938964844,-12.843000411987305 -83.01399993896484,-5.8429999351501465 C-111.01399993896484,1.156999945640564 -100.01399993896484,14.156999588012695 -134.01400756835938,13.156999588012695 C-168.01400756835938,12.156999588012695 -153.01400756835938,-28.843000411987305 -149.01400756835938,-49.84299850463867 C-145.01400756835938,-70.84300231933594 -125.01399993896484,-90.84300231933594 -93.01399993896484,-63.84299850463867 C-61.013999938964844,-36.84299850463867 -66.01399993896484,-25.843000411987305 -35.013999938964844,-18.843000411987305 C-4.013999938964844,-11.843000411987305 82.98600006103516,12.156999588012695 108.98600006103516,7.1570000648498535 C134.98599243164062,2.1570000648498535 149.98599243164062,-9.843000411987305 149.98599243164062,-9.843000411987305 C149.98599243164062,-9.843000411987305 162.98599243164062,-1.843000054359436 149.98599243164062,40.15700149536133 C136.05099487304688,85.177001953125 123.98600006103516,76.15699768066406 123.98600006103516,76.15699768066406z"/></g></g><g transform="matrix(1,0,0,1,672.7930297851562,1046.094970703125)" opacity="1" style="display: block;"><g opacity="1" transform="matrix(1,0,0,1,0,0)"><path fill="url(#__lottie_element_3254)" fill-opacity="1" d=" M160.1959991455078,14.482999801635742 C158.1020050048828,12.260000228881836 154.83999633789062,11.604000091552734 152.0189971923828,12.77400016784668 C143.8249969482422,16.173999786376953 125.08699798583984,22.68600082397461 109.20700073242188,18.905000686645508 C73.33200073242188,10.36299991607666 15.206999778747559,-0.0949999988079071 -33.792999267578125,-21.094999313354492 C-82.79299926757812,-42.095001220703125 -73.79299926757812,-57.095001220703125 -74.79299926757812,-59.095001220703125 C-75.79299926757812,-61.095001220703125 -74.79299926757812,-116.09500122070312 -123.79299926757812,-109.09500122070312 C-172.79299926757812,-102.09500122070312 -172.79299926757812,-43.095001220703125 -170.79299926757812,-23.094999313354492 C-168.79299926757812,-3.0950000286102295 -152.79299926757812,13.904999732971191 -113.79299926757812,-3.0950000286102295 C-74.79299926757812,-20.094999313354492 -44.792999267578125,-12.095000267028809 -16.792999267578125,3.9049999713897705 C11.206999778747559,19.905000686645508 27.207000732421875,32.904998779296875 45.207000732421875,40.904998779296875 C63.207000732421875,48.904998779296875 91.20700073242188,49.904998779296875 101.20700073242188,73.90499877929688 C111.20700073242188,97.90499877929688 115.20700073242188,106.90499877929688 118.20700073242188,108.90499877929688 C121.20700073242188,110.90499877929688 146.80299377441406,112.19499969482422 164.20700073242188,73.90499877929688 C179.25999450683594,40.78799819946289 167.1219940185547,21.83300018310547 160.1959991455078,14.482999801635742z"/></g></g><g transform="matrix(1,0,0,1,909.6799926757812,742.0460205078125)" opacity="1" style="display: block;"><g opacity="1" transform="matrix(1,0,0,1,0,0)"><path fill="url(#__lottie_element_3258)" fill-opacity="1" d=" M125.31999969482422,94.9540023803711 C125.31999969482422,94.9540023803711 108.31999969482422,100.9540023803711 76.31999969482422,69.9540023803711 C44.31999969482422,38.95399856567383 -19.68000030517578,-19.04599952697754 -27.68000030517578,-90.0459976196289 C-27.68000030517578,-110.0459976196289 -18.68000030517578,-118.0459976196289 -19.68000030517578,-137.04600524902344 C-20.68000030517578,-156.04600524902344 -46.68000030517578,-175.04600524902344 -86.68000030517578,-146.04600524902344 C-126.68000030517578,-117.0459976196289 -138.67999267578125,-99.0459976196289 -115.68000030517578,-80.0459976196289 C-92.68000030517578,-61.04600143432617 -85.68000030517578,-85.0459976196289 -59.68000030517578,-59.04600143432617 C-33.68000030517578,-33.04600143432617 -12.680000305175781,-9.045999526977539 5.320000171661377,24.95400047302246 C23.31999969482422,58.95399856567383 46.31999969482422,89.9540023803711 45.31999969482422,111.9540023803711 C44.31999969482422,133.95399475097656 40.31999969482422,152.95399475097656 40.31999969482422,152.95399475097656 C40.31999969482422,152.95399475097656 56.31999969482422,175.95399475097656 97.31999969482422,143.95399475097656 C138.32000732421875,111.9540023803711 125.31999969482422,94.9540023803711 125.31999969482422,94.9540023803711z"/></g></g></g><g clip-path="url(#__lottie_element_3064)" transform="matrix(0.4994417130947113,-0.023621320724487305,0.023621320724487305,0.4994417130947113,349.1190185546875,306.143310546875)" opacity="1" style="display: block;"><g transform="matrix(1,0,0,1,868.6719970703125,511.17498779296875)" opacity="1" style="display: block;"><g opacity="1" transform="matrix(1,0,0,1,0,0)"><path fill="url(#__lottie_element_3262)" fill-opacity="1" d=" M-17.672000885009766,2.825000047683716 C-17.672000885009766,2.825000047683716 -68.6719970703125,-6.175000190734863 -66.6719970703125,-71.17500305175781 C-64.6719970703125,-136.1750030517578 -8.67199993133545,-145.1750030517578 25.327999114990234,-136.1750030517578 C59.327999114990234,-127.17500305175781 107.3280029296875,-104.17500305175781 87.3280029296875,-41.17499923706055 C67.3280029296875,21.825000762939453 12.32800006866455,14.824999809265137 12.32800006866455,14.824999809265137 C12.32800006866455,14.824999809265137 1.3279999494552612,37.82500076293945 1.3279999494552612,37.82500076293945 C1.3279999494552612,37.82500076293945 33.327999114990234,70.82499694824219 27.327999114990234,93.82499694824219 C21.327999114990234,116.82499694824219 6.328000068664551,147.8249969482422 -34.672000885009766,136.8249969482422 C-75.6719970703125,125.82499694824219 -101.6719970703125,100.82499694824219 -88.6719970703125,67.82499694824219 C-75.6719970703125,34.82500076293945 -34.672000885009766,30.825000762939453 -34.672000885009766,30.825000762939453 C-34.672000885009766,30.825000762939453 -17.672000885009766,2.825000047683716 -17.672000885009766,2.825000047683716z"/></g></g><g transform="matrix(1,0,0,1,463.8380126953125,492.1050109863281)" opacity="1" style="display: block;"><g opacity="1" transform="matrix(1,0,0,1,0,0)"><path fill="url(#__lottie_element_3266)" fill-opacity="1" d=" M73.16200256347656,33.89500045776367 C73.16200256347656,33.89500045776367 112.16200256347656,15.895000457763672 131.16200256347656,38.89500045776367 C150.16200256347656,61.89500045776367 130.16200256347656,106.8949966430664 117.16200256347656,119.8949966430664 C104.16200256347656,132.89500427246094 80.16200256347656,145.89500427246094 49.1619987487793,127.8949966430664 C18.16200065612793,109.8949966430664 40.1619987487793,81.8949966430664 40.1619987487793,81.8949966430664 C40.1619987487793,81.8949966430664 32.1619987487793,48.89500045776367 -0.8379999995231628,18.895000457763672 C-33.8380012512207,-11.104999542236328 -43.8380012512207,-11.104999542236328 -43.8380012512207,-11.104999542236328 C-43.8380012512207,-11.104999542236328 -84.83799743652344,22.895000457763672 -119.83799743652344,-11.104999542236328 C-154.83799743652344,-45.10499954223633 -134.4929962158203,-78.46600341796875 -116.66600036621094,-108.78500366210938 C-98.83899688720703,-139.10400390625 -47.8380012512207,-146.10499572753906 -23.83799934387207,-123.1050033569336 C0.16200000047683716,-100.1050033569336 -9.838000297546387,-49.10499954223633 -12.838000297546387,-38.10499954223633 C-15.838000297546387,-27.104999542236328 -1.8380000591278076,4.894999980926514 24.16200065612793,14.895000457763672 C50.1619987487793,24.895000457763672 73.16200256347656,33.89500045776367 73.16200256347656,33.89500045776367z"/></g></g><g transform="matrix(1,0,0,1,1157.949951171875,813.822998046875)" opacity="1" style="display: block;"><g opacity="1" transform="matrix(1,0,0,1,0,0)"><path fill="url(#__lottie_element_3270)" fill-opacity="1" d=" M-56.95000076293945,-28.822999954223633 C-56.95000076293945,-28.822999954223633 -51.95000076293945,-65.822998046875 -114.94999694824219,-63.823001861572266 C-177.9499969482422,-61.823001861572266 -157.9499969482422,17.177000045776367 -157.9499969482422,17.177000045776367 C-157.9499969482422,17.177000045776367 -144.9499969482422,57.176998138427734 -106.94999694824219,51.176998138427734 C-68.94999694824219,45.176998138427734 -56.95000076293945,16.177000045776367 -56.95000076293945,16.177000045776367 C-56.95000076293945,16.177000045776367 -27.950000762939453,8.177000045776367 -7.949999809265137,11.177000045776367 C12.050000190734863,14.177000045776367 21.049999237060547,16.177000045776367 21.049999237060547,16.177000045776367 C21.049999237060547,16.177000045776367 35.04999923706055,83.177001953125 96.05000305175781,74.177001953125 C157.0500030517578,65.177001953125 164.0500030517578,35.176998138427734 160.0500030517578,-1.8229999542236328 C156.0500030517578,-38.823001861572266 134.0500030517578,-82.822998046875 93.05000305175781,-73.822998046875 C52.04999923706055,-64.822998046875 29.049999237060547,-30.822999954223633 21.049999237060547,-18.822999954223633 C13.050000190734863,-6.822999954223633 -56.95000076293945,-28.822999954223633 -56.95000076293945,-28.822999954223633z"/></g></g><g transform="matrix(1,0,0,1,988.5089721679688,1249.77294921875)" opacity="1" style="display: block;"><g opacity="1" transform="matrix(1,0,0,1,0,0)"><path fill="url(#__lottie_element_3274)" fill-opacity="1" d=" M-18.509000778198242,-98.77300262451172 C-18.509000778198242,-98.77300262451172 0.4909999966621399,-118.77300262451172 -18.509000778198242,-152.7729949951172 C-37.50899887084961,-186.7729949951172 -62.50899887084961,-182.7729949951172 -91.50900268554688,-166.7729949951172 C-120.50900268554688,-150.7729949951172 -122.50900268554688,-113.77300262451172 -108.50900268554688,-94.77300262451172 C-94.50900268554688,-75.77300262451172 -71.50900268554688,-84.77300262451172 -71.50900268554688,-84.77300262451172 C-71.50900268554688,-84.77300262451172 -43.50899887084961,-45.77299880981445 -27.509000778198242,-4.7729997634887695 C-11.508999824523926,36.22700119018555 -18.509000778198242,76.22699737548828 -18.509000778198242,76.22699737548828 C-18.509000778198242,76.22699737548828 -52.50899887084961,127.22699737548828 -10.508999824523926,160.2270050048828 C31.490999221801758,193.2270050048828 56.49100112915039,178.2270050048828 92.49099731445312,145.2270050048828 C128.49099731445312,112.22699737548828 121.49099731445312,86.06900024414062 92.49099731445312,53.14799880981445 C63.49100112915039,20.226999282836914 47.013999938964844,38.36199951171875 47.013999938964844,38.36199951171875 C47.013999938964844,38.36199951171875 23.490999221801758,46.22700119018555 0.4909999966621399,-14.77299976348877 C-22.509000778198242,-75.77300262451172 -18.509000778198242,-98.77300262451172 -18.509000778198242,-98.77300262451172z"/></g></g><g transform="matrix(1,0,0,1,676.4869995117188,902.3740234375)" opacity="1" style="display: block;"><g opacity="1" transform="matrix(1,0,0,1,0,0)"><path fill="url(#__lottie_element_3278)" fill-opacity="1" d=" M62.51300048828125,16.625999450683594 C62.51300048828125,16.625999450683594 135.51300048828125,9.62600040435791 81.51300048828125,-77.3740005493164 C27.51300048828125,-164.37399291992188 -18.48699951171875,-55.374000549316406 -18.48699951171875,-55.374000549316406 C-18.48699951171875,-55.374000549316406 -77.48699951171875,-75.3740005493164 -95.48699951171875,-13.37399959564209 C-113.48699951171875,48.625999450683594 -88.48699951171875,87.6259994506836 -47.48699951171875,104.6259994506836 C-6.486999988555908,121.6259994506836 41.51300048828125,102.6259994506836 55.51300048828125,74.6259994506836 C69.51300048828125,46.625999450683594 62.51300048828125,16.625999450683594 62.51300048828125,16.625999450683594z"/></g></g><g transform="matrix(1,0,0,1,268.5039978027344,901.9180297851562)" opacity="1" style="display: block;"><g opacity="1" transform="matrix(1,0,0,1,0,0)"><path fill="url(#__lottie_element_3282)" fill-opacity="1" d=" M95.49600219726562,7.081999778747559 C95.49600219726562,7.081999778747559 106.49600219726562,36.082000732421875 149.49600219726562,27.082000732421875 C192.49600219726562,18.082000732421875 190.49600219726562,-10.918000221252441 171.49600219726562,-53.917999267578125 C152.49600219726562,-96.91799926757812 124.49600219726562,-98.91799926757812 95.49600219726562,-67.91799926757812 C66.49600219726562,-36.917999267578125 51.49599838256836,-19.917999267578125 2.496000051498413,-12.918000221252441 C-46.50400161743164,-5.918000221252441 -79.50399780273438,-4.918000221252441 -98.50399780273438,-29.917999267578125 C-117.50399780273438,-54.917999267578125 -197.50399780273438,-33.917999267578125 -182.50399780273438,29.082000732421875 C-167.50399780273438,92.08200073242188 -161.7239990234375,94.08200073242188 -106.61399841308594,85.08200073242188 C-51.50400161743164,76.08200073242188 -68.50399780273438,30.082000732421875 -60.50400161743164,30.082000732421875 C-52.50400161743164,30.082000732421875 -41.50400161743164,17.082000732421875 22.496000289916992,9.081999778747559 C86.49600219726562,1.0820000171661377 95.49600219726562,7.081999778747559 95.49600219726562,7.081999778747559z"/></g></g><g transform="matrix(1,0,0,1,515.0679931640625,1274.362060546875)" opacity="1" style="display: block;"><g opacity="1" transform="matrix(1,0,0,1,0,0)"><path fill="url(#__lottie_element_3286)" fill-opacity="1" d=" M121.93199920654297,-102.36199951171875 C131.07000732421875,-122.29900360107422 128.9320068359375,-149.36199951171875 87.93199920654297,-167.36199951171875 C46.93199920654297,-185.36199951171875 28.93199920654297,-169.36199951171875 21.93199920654297,-155.36199951171875 C14.932000160217285,-141.36199951171875 35.93199920654297,-109.36199951171875 35.93199920654297,-109.36199951171875 C35.93199920654297,-109.36199951171875 37.93199920654297,-59.36199951171875 1.9320000410079956,-8.362000465393066 C-34.06800079345703,42.63800048828125 -51.06800079345703,53.63800048828125 -51.06800079345703,53.63800048828125 C-51.06800079345703,53.63800048828125 -86.06800079345703,28.63800048828125 -116.06800079345703,85.63800048828125 C-146.0679931640625,142.63800048828125 -104.7750015258789,153.3939971923828 -65.9209976196289,170.01600646972656 C-27.066999435424805,186.63800048828125 -1.0679999589920044,161.63800048828125 11.932000160217285,135.63800048828125 C24.93199920654297,109.63800048828125 -1.555999994277954,102.76000213623047 0.6880000233650208,75.1989974975586 C2.931999921798706,47.63800048828125 1.9320000410079956,25.63800048828125 37.93199920654297,-20.36199951171875 C73.93199920654297,-66.36199951171875 87.93199920654297,-81.36199951171875 87.93199920654297,-81.36199951171875 C87.93199920654297,-81.36199951171875 110.93199920654297,-78.36199951171875 121.93199920654297,-102.36199951171875z"/></g></g></g></g></svg>